<?xml version="1.0" encoding="UTF-8" standalone="no"?>
<svg class="face" viewBox="0 0 724 724" version="1.1" xmlns="http://www.w3.org/2000/svg" xmlns:xlink="http://www.w3.org/1999/xlink">
    <title>jess</title>
    <defs></defs>
    <g id="Page-1" stroke="none" stroke-width="1" fill="none" fill-rule="evenodd">
        <g id="jess" transform="translate(1.000000, 1.000000)">
            <circle class="face-outline" stroke="#979797" cx="361" cy="361" r="361"></circle>
            <g class="face-hair" id="Group" transform="translate(139.000000, 115.000000)" fill="#FFFFFF">
                <path d="M198.8,118 C197.4,130.8 196.1,144.5 199.2,157.1 C202.8,172.2 211.4,185.9 219.5,198.9 C236.2,225.7 256.2,252.6 280.1,273.3 C293.1,284.5 308.5,292.1 325.4,295.1 C326.8,295.4 327.4,293.2 326,292.9 C310.4,290.1 296,283.5 283.7,273.4 C272.2,263.9 262.1,252.4 252.6,241 C242.5,228.9 233.2,216.2 224.7,203 C216.5,190.3 207.9,176.8 203,162.4 C198.2,148.1 199.4,132.7 201,117.9 C201.2,116.5 198.9,116.5 198.8,118 L198.8,118 L198.8,118 Z" id="Shape"></path>
                <path d="M204.6,119.2 C199.3,147.6 209.2,174.9 223.3,199.1 C237.6,223.8 254.4,247.5 275.6,266.8 C287.4,277.6 300.5,286.9 314.9,294 C316.2,294.6 317.3,292.7 316,292.1 C291.6,280.1 271.2,261.7 254.2,240.7 C245.3,229.7 237.3,218 230,206 C222,192.9 214.3,179.3 209.8,164.6 C205.5,150.6 204.2,134.3 206.9,119.8 C207,118.4 204.9,117.8 204.6,119.2 L204.6,119.2 L204.6,119.2 Z" id="Shape"></path>
                <path d="M209.3,116.3 C213.6,145.2 223.6,173.8 239.3,198.5 C247.9,212 257.6,224.7 267.9,237 C277.7,248.7 287.8,260.5 299,270.9 C310.5,281.6 323.6,290.5 339.1,294.2 C340.5,294.5 341.1,292.4 339.7,292 C311,285.1 290.7,260.3 272.4,238.8 C252.7,215.7 234.7,191 223.8,162.4 C218.1,147.3 213.9,131.7 211.5,115.7 C211.3,114.3 209.1,114.9 209.3,116.3 L209.3,116.3 L209.3,116.3 Z" id="Shape"></path>
                <path d="M207.7,112.9 C210,142.1 217.1,171.2 229.2,198 C241.3,224.6 259.5,248.3 281.4,267.7 C293.7,278.5 307.1,288 321.4,295.9 C322.7,296.6 323.8,294.7 322.5,294 C297.4,280.1 275.2,261.5 257.2,239.1 C238.8,216.3 226.4,189.9 218.6,161.8 C214.2,145.8 211.3,129.5 209.9,113 C209.9,111.5 207.6,111.5 207.7,112.9 L207.7,112.9 L207.7,112.9 Z" id="Shape"></path>
                <path d="M214.4,106.4 C221.5,136.5 231.2,164.9 248.3,190.9 C265.6,217.1 287.3,241.5 310.9,262.4 C323.1,273.2 336.9,282.5 353.2,285.5 C354.6,285.8 355.2,283.6 353.8,283.3 C338.7,280.5 325.8,272.3 314.4,262.4 C303.1,252.6 292.6,241.7 282.5,230.6 C261.7,207.8 242.2,182.3 230.9,153.3 C224.9,137.9 220.4,121.9 216.7,105.8 C216.3,104.3 214.1,104.9 214.4,106.4 L214.4,106.4 L214.4,106.4 Z" id="Shape"></path>
                <path d="M211.9,108.9 C220,138.7 230,168.6 244,196.2 C257.7,223.4 279.4,248.2 302.9,267.5 C315.1,277.6 328.9,285.8 344.6,289.1 C346,289.4 346.6,287.2 345.2,286.9 C316.1,280.8 293.7,257.8 274.7,236.3 C264.6,224.8 255.4,212.5 248.1,199.1 C240.7,185.3 234.7,170.6 229.3,156 C223.5,140.3 218.5,124.4 214.1,108.3 C213.7,106.9 211.5,107.5 211.9,108.9 L211.9,108.9 L211.9,108.9 Z" id="Shape"></path>
                <path d="M224,103.1 C229.5,133.8 244.5,162.2 261.5,188 C278.7,214.3 298,240.5 321.6,261.5 C327.7,266.9 334.3,271.9 341.7,275.4 C349.7,279.1 358.3,279.9 366.6,282.4 C368,282.8 368.6,280.6 367.2,280.2 C359.3,277.9 351.1,277.2 343.6,273.8 C336.8,270.7 330.7,266.4 325.1,261.6 C313.8,251.9 303.6,240.5 294.1,229 C274.6,205.2 256.6,179.1 243,151.4 C235.4,135.9 229.3,119.6 226.2,102.5 C225.9,101.1 223.8,101.7 224,103.1 L224,103.1 L224,103.1 Z" id="Shape"></path>
                <path d="M219.3,104.2 C225.6,135.2 238.9,162.9 256,189.3 C273.8,216.8 294.7,243.2 318.8,265.5 C324.6,270.9 331,275.8 338.6,278.3 C347.1,281.1 356.8,281 364.1,286.9 C365.2,287.8 366.8,286.2 365.7,285.3 C360.8,281.2 355,279.7 348.9,278.4 C341,276.7 333.9,274.5 327.3,269.6 C314.4,260 303.4,246.9 293,234.8 C271.9,210.2 252.1,182.8 238.1,153.4 C230.6,137.6 225.1,120.6 221.6,103.5 C221.2,102.2 219,102.8 219.3,104.2 L219.3,104.2 L219.3,104.2 Z" id="Shape"></path>
                <path d="M227,94.6 C229.6,123.5 247.5,150.3 262.7,174.1 C272.5,189.5 281.3,205.3 292.2,220 C302.2,233.4 313.1,246.7 325.5,257.9 C331.8,263.6 338.7,268.8 346.6,272.1 C355.3,275.7 365.1,274.7 373.6,278.5 C374.9,279.1 376.1,277.1 374.7,276.6 C367.9,273.6 360.6,274 353.5,272.1 C345.3,270 337.9,265.4 331.3,260.1 C318.8,249.9 308,237 298.2,224.3 C287.4,210.5 278.4,195.7 269.3,180.7 C261.7,168.1 253.5,155.9 246.4,142.9 C238.3,128 230.6,111.7 229,94.5 C229.1,93.2 226.8,93.2 227,94.6 L227,94.6 L227,94.6 Z" id="Shape"></path>
                <path d="M235.1,89.6 C233.6,102.7 238.3,116.5 243.2,128.4 C249.2,143.2 258.3,156.5 266.9,169.8 C277.2,185.8 287.9,201.5 299.1,216.8 C308.8,230.1 318.4,244.1 330.9,254.9 C336.8,260 343.3,264.3 350.6,267.2 C360.2,271 370.6,271.7 380.6,274.1 C382,274.4 382.6,272.3 381.2,271.9 C373.1,270 364.8,269.1 356.8,266.9 C348.8,264.6 341.4,260.5 334.9,255.3 C322.3,245.2 312.7,231.7 303.2,218.7 C292.7,204.4 282.6,189.8 272.9,175 C264.2,161.7 254.7,148.3 248,133.9 C241.8,120.6 235.6,104.5 237.3,89.6 C237.5,88.2 235.2,88.2 235.1,89.6 L235.1,89.6 L235.1,89.6 Z" id="Shape"></path>
                <path d="M242.2,84.1 C243.9,114.1 262.9,140.7 277.1,166 C293.6,195.7 307.5,228.3 334.4,250.4 C341,255.8 348.2,260.4 356,263.8 C364,267.3 373.8,268.4 379.5,275.6 C380.4,276.7 382,275.1 381.1,274 C377.1,269 371.3,266.9 365.5,264.9 C357.9,262.4 350.8,259.1 344.1,254.7 C330.3,245.6 319.1,232.9 309.9,219.3 C300.1,204.8 292.2,189.1 284,173.7 C276.6,159.9 268,146.6 260.9,132.7 C253.2,117.7 245.6,101.2 244.7,84.1 C244.3,82.6 242.1,82.6 242.2,84.1 L242.2,84.1 L242.2,84.1 Z" id="Shape"></path>
                <path d="M249.1,81.6 C259.6,111.2 271.9,140.3 287.1,167.8 C294.9,181.9 303.8,195 313.2,208 C322.9,221.4 329.7,236.3 341.6,248 C347.7,253.9 354.3,259.8 362.1,263.2 C369.7,266.6 378.5,267.8 384.1,274.5 C385,275.6 386.6,274 385.7,272.9 C381.7,268.2 376.3,266 370.6,264 C362.6,261.2 355.9,257.7 349.5,252.1 C343.1,246.6 337.1,240.6 332.3,233.7 C327.5,226.8 323.8,219.2 319,212.3 C310.1,199.3 300.7,186.9 292.7,173.2 C284.8,159.5 277.7,145.2 271.2,130.8 C263.8,114.5 257.2,97.9 251.3,81.1 C250.8,79.6 248.6,80.2 249.1,81.6 L249.1,81.6 L249.1,81.6 Z" id="Shape"></path>
                <path d="M258,80.6 C263.9,106.3 276.6,130.2 289.7,152.8 C305.6,180.5 320.1,209.1 340,234.2 C350.2,247.1 361.8,258.8 375.1,268.5 C376.3,269.4 377.4,267.4 376.2,266.6 C351.9,248.9 333.8,224.3 318.4,198.8 C310.1,185 302.4,170.7 294.4,156.7 C287.9,145.3 281.3,134 275.7,122.1 C269.4,108.6 263.5,94.6 260.2,80.1 C259.9,78.6 257.7,79.2 258,80.6 L258,80.6 L258,80.6 Z" id="Shape"></path>
                <path d="M263.7,78.7 C279.7,107.2 293.8,136.6 308.9,165.6 C316.3,179.9 323.9,194.1 332.3,207.9 C341.4,222.8 352.2,236.5 360.6,251.8 C361.3,253.1 363.2,251.9 362.5,250.7 C354.1,235.4 343.2,221.7 334.2,206.8 C325.8,193 318.2,178.8 310.8,164.5 C295.7,135.6 281.6,106.1 265.6,77.6 C265,76.3 263,77.5 263.7,78.7 L263.7,78.7 L263.7,78.7 Z" id="Shape"></path>
                <path d="M263.9,73.7 C285,99 302.4,127.9 316.5,157.6 C323.9,173.1 328.9,189.4 335.4,205.3 C342.1,221.9 353.5,236.1 360.4,252.6 C360.9,253.9 363.1,253.3 362.6,252 C355.5,234.9 343.7,220.2 336.9,203 C330.8,187.4 325.7,171.7 318.5,156.5 C304.3,126.6 286.8,97.6 265.5,72.1 C264.6,71 263,72.6 263.9,73.7 L263.9,73.7 L263.9,73.7 Z" id="Shape"></path>
                <path d="M266.2,77.3 C301.1,129.3 328.6,186.1 354.4,243.1 C355,244.4 356.9,243.3 356.3,242 C330.5,185.1 303.1,128.2 268.1,76.2 C267.3,75 265.4,76.1 266.2,77.3 L266.2,77.3 L266.2,77.3 Z" id="Shape"></path>
                <path d="M261.4,81.3 C291.2,143.8 324,205.1 364.8,261.2 C365.6,262.4 367.6,261.2 366.7,260.1 C325.9,204 293.1,142.7 263.3,80.2 C262.8,78.9 260.8,80 261.4,81.3 L261.4,81.3 L261.4,81.3 Z" id="Shape"></path>
                <path d="M240.7,85.6 C242.7,98.7 245.5,111.9 249.5,124.5 C254.5,140 263.9,153.6 272.4,167.3 C282.4,183.4 292.4,199.5 302.4,215.5 C310.8,228.9 319.7,241.8 331.5,252.4 C343.6,263.3 358.1,271.3 374.3,273.6 C375.7,273.8 376.3,271.6 374.9,271.4 C343.4,267.1 321.8,242.1 305.8,216.7 C296.1,201.3 286.6,185.8 276.9,170.3 C268.1,156.2 257.8,142 252.4,126.2 C247.8,112.9 244.9,98.8 242.8,85 C242.7,83.6 240.5,84.2 240.7,85.6 L240.7,85.6 L240.7,85.6 Z" id="Shape"></path>
                <path d="M211.7,111.9 C216,124.5 218.5,137.6 223.3,150.1 C229,164.9 235.1,179.6 242.2,193.8 C255.8,220.9 273.4,246.4 296.9,265.8 C309,275.8 322.5,283.9 337.2,289.6 C338.6,290.1 339.1,287.9 337.8,287.4 C279.9,265 248,207.7 226.7,152.8 C224,145.8 221.4,138.9 219.5,131.7 C217.7,124.9 216.1,117.9 213.8,111.2 C213.4,109.9 211.2,110.5 211.7,111.9 L211.7,111.9 L211.7,111.9 Z" id="Shape"></path>
                <path d="M251.1,80.8 C261.6,109 276.9,135.3 292,161.3 C300.1,175.3 307.9,189.4 315.7,203.5 C323.2,217.1 331.3,230.5 341.4,242.3 C353,255.9 366.5,265 382.6,272.5 C383.9,273.1 385,271.2 383.7,270.6 C369.4,263.9 357,256.1 346.2,244.4 C335.5,232.8 327.1,219.4 319.5,205.7 C304.5,179.1 289,152.7 274.5,125.8 C266.6,111 259.1,96 253.2,80.3 C252.7,78.8 250.6,79.4 251.1,80.8 L251.1,80.8 L251.1,80.8 Z" id="Shape"></path>
                <path d="M268,70.7 C290.7,89 304.7,117.7 316.3,143.9 C323.1,159.4 329.1,175.2 335.3,191 C342.3,208.8 349.2,226.6 354.5,244.9 C354.9,246.3 357.1,245.7 356.7,244.3 C351.2,225.3 344,206.9 336.7,188.5 C330.7,173.2 324.9,157.8 318.2,142.8 C306.6,116.5 292.4,87.6 269.6,69.2 C268.4,68.2 266.8,69.8 268,70.7 L268,70.7 L268,70.7 Z" id="Shape"></path>
                <path d="M272.9,68.3 C285.9,77.3 296.2,90.3 305.1,103.1 C313.9,115.8 321.6,129.4 327.2,143.8 C333.9,160.9 338.2,178.8 341.6,196.7 C344.9,213.8 347,231.6 355.8,247 C356.5,248.3 358.5,247.1 357.7,245.9 C348.1,229.1 346.4,209.4 342.6,190.8 C338.9,172.8 334.3,154.9 327.1,137.9 C321.1,123.8 313.2,110.5 304.2,98.1 C295.7,86.3 286,74.7 273.9,66.3 C272.8,65.6 271.7,67.5 272.9,68.3 L272.9,68.3 L272.9,68.3 Z" id="Shape"></path>
                <path d="M277.8,62.9 C287.9,71.1 296.6,81.2 304.8,91.3 C314.4,103.2 322.9,115.4 328.8,129.6 C332,137.3 334.6,145.2 337.2,153.1 C340.1,161.8 343,170.5 344.1,179.6 C345.2,188.3 345.1,197.1 346.3,205.9 C347.3,213.4 349,220.8 351.4,228 C356.8,244.4 365.4,259.5 376.7,272.5 C377.7,273.6 379.2,272 378.3,270.9 C367.3,258.2 358.8,243.4 353.6,227.4 C351,219.6 349.2,211.5 348.3,203.3 C347.3,194.7 347.4,186 346.2,177.5 C343.8,161.1 337.4,144.3 331.1,129.1 C325.8,116.4 318.6,105.2 310.2,94.4 C301,82.7 291.2,70.8 279.6,61.4 C278.3,60.4 276.7,62 277.8,62.9 L277.8,62.9 L277.8,62.9 Z" id="Shape"></path>
                <path d="M285.9,61 C296.6,69.3 305.2,81 313.9,91.2 C325,104.1 337.3,117.8 337.4,135.8 C337.4,137.2 339.7,137.3 339.6,135.8 C339.6,119.1 329.4,105.9 319,93.7 C309.1,82.1 299.5,68.7 287.4,59.3 C286.4,58.6 284.8,60.1 285.9,61 L285.9,61 L285.9,61 Z" id="Shape"></path>
                <path d="M289,56 C292.7,54.7 298.9,62 301.2,64.3 C304.8,67.9 308.1,71.9 311.2,75.9 C316.6,83 321.4,90.6 325.6,98.4 C326.3,99.7 328.2,98.5 327.5,97.3 C322.4,87.7 316.3,78.6 309.4,70.2 C305.9,65.9 302.1,61.8 297.9,58.3 C295.3,56.1 291.9,52.6 288.3,53.9 C287.1,54.3 287.7,56.4 289,56 L289,56 L289,56 Z" id="Shape"></path>
                <path d="M295.8,56.5 C297.4,57.5 298.6,59.7 299.7,61.2 C301.9,64.1 304.1,67 306.2,69.9 C311.1,76.5 316.2,83 321.1,89.6 C322,90.7 323.9,89.6 323,88.5 C317.3,81 311.5,73.5 305.9,65.9 C303.5,62.6 300.5,56.9 296.9,54.6 C295.8,53.7 294.6,55.7 295.8,56.5 L295.8,56.5 L295.8,56.5 Z" id="Shape"></path>
                <path d="M295.9,53.3 C301.5,56.4 306,62.5 309.9,67.4 C315.9,74.8 321.4,83 325,91.8 C325.5,93.1 327.7,92.5 327.2,91.2 C323.7,82.3 318.3,74.3 312.4,66.8 C308.2,61.4 303.3,54.7 297.1,51.3 C295.8,50.6 294.7,52.6 295.9,53.3 L295.9,53.3 L295.9,53.3 Z" id="Shape"></path>
                <path d="M294.3,49.2 C295.9,49.3 298.2,55.5 299.6,56.9 C302,59.2 304.6,61.2 306.9,63.6 C314,71.2 320.9,80.4 323.1,90.7 C323.4,92.1 325.6,91.5 325.3,90.1 C323,79.2 315.7,69.5 308.2,61.5 C305.8,58.9 302.6,56.9 300.3,54.3 C298.5,52.1 297.9,47 294.4,46.9 C292.8,46.9 292.8,49.2 294.3,49.2 L294.3,49.2 L294.3,49.2 Z" id="Shape"></path>
                <path d="M297.7,50.8 C307.7,56.6 316,65.6 323,74.7 C331.7,86 338.3,98.7 340.7,112.8 C346.3,145.7 344.9,179.6 349.3,212.6 C351.4,228.2 355.3,243.5 363.6,257 C364.4,258.2 366.3,257.1 365.5,255.9 C348.7,228.3 349.9,193.8 347.6,162.6 C346.3,145.5 345.7,128.1 342.7,111.2 C340.3,97.7 333.9,85.5 325.7,74.6 C318.3,64.8 309.4,55.1 298.7,48.8 C297.6,48.1 296.4,50 297.7,50.8 L297.7,50.8 L297.7,50.8 Z" id="Shape"></path>
                <path d="M301.2,49.6 C315,54.8 324.9,66.1 332.5,78.4 C340.7,91.7 347.7,106.5 351.3,121.8 C358.9,154.1 350.2,187.3 352.2,219.9 C353.1,235.5 356.4,250.9 364.3,264.5 C365,265.8 367,264.6 366.2,263.4 C349.4,234.3 354.5,199.8 356.2,167.8 C357.1,151 357,133.9 352.5,117.6 C348.5,103 341.6,88.7 333.5,76 C325.7,63.7 315.6,52.7 301.7,47.5 C300.4,46.9 299.9,49.1 301.2,49.6 L301.2,49.6 L301.2,49.6 Z" id="Shape"></path>
                <path d="M308.9,48.7 C337.8,63 351.7,93.7 359.1,123.4 C363.1,139.6 366.7,156.3 365.6,173.1 C364.5,190.5 361.4,207.6 361.2,225.1 C361.1,234.8 361.5,244.6 362.4,254.3 C363,260.3 362.7,267.8 368.2,271.7 C369.4,272.5 370.5,270.6 369.3,269.8 C365.2,266.9 365.3,260.8 364.8,256.3 C364.3,251.8 364,247.3 363.8,242.7 C363.4,234 363.3,225.2 363.7,216.4 C364.5,199.1 368.3,181.9 368.1,164.6 C367.9,149.1 364.1,133.4 360.1,118.5 C356.2,103.9 350.8,89.4 342.5,76.6 C334.3,64.1 323.5,53.4 310,46.8 C308.8,46.1 307.6,48.1 308.9,48.7 L308.9,48.7 L308.9,48.7 Z" id="Shape"></path>
                <path d="M315.8,49.5 C324.7,52.4 331.7,59.7 337.8,66.5 C344,73.4 349.3,81 353.9,89 C363.3,105.6 369.2,124.1 372,142.9 C375.1,163.5 374.3,184.2 372,204.8 C369.7,225.5 366.5,246.1 367.7,266.9 C367.8,268.3 370,268.3 369.9,266.9 C367.9,232.1 377.6,197.9 376.1,163 C374.8,132.7 366.7,102.4 349.2,77.4 C341.2,65.9 330.2,51.8 316.3,47.4 C315,46.9 314.5,49.1 315.8,49.5 L315.8,49.5 L315.8,49.5 Z" id="Shape"></path>
                <path d="M319.7,49.5 C335.9,55.6 349.5,71.6 358.8,85.6 C367.7,99.1 374.1,114.1 378.3,129.7 C388.4,167.6 384.7,207.6 377.6,245.8 C377.3,247.2 379.5,247.8 379.8,246.4 C390.5,189.1 392.5,124.4 354.7,76 C345.8,64.6 334.1,52.5 320.4,47.3 C318.9,46.9 318.3,49 319.7,49.5 L319.7,49.5 L319.7,49.5 Z" id="Shape"></path>
                <path d="M322.9,47.3 C339.3,53.9 351.8,66.6 361.7,81 C371.8,95.7 381.2,112.3 386.8,129.3 C393.4,149.3 391.8,171.2 391.9,192 C392,213.1 392,234.3 391.8,255.4 C391.8,256.8 394,256.8 394,255.4 C394.2,237.6 394.2,219.7 394.2,201.9 C394.2,184.4 394.9,166.5 393.2,149 C391.7,133.8 386.2,119.9 379.2,106.4 C372.9,94.3 366,82.3 357.5,71.6 C348.3,60.2 337.2,50.7 323.5,45.2 C322.1,44.6 321.6,46.8 322.9,47.3 L322.9,47.3 L322.9,47.3 Z" id="Shape"></path>
                <path d="M326.9,46.9 C341,50.8 351.3,61.4 359.9,72.6 C368.9,84.3 377.4,96.8 384.3,109.9 C391.7,124.1 396.3,139.2 398.6,155 C400.9,171.1 402.3,187.8 402.3,204.1 C402.3,222.7 396.3,240.2 390.1,257.5 C389.6,258.9 391.8,259.5 392.3,258.1 C397.9,242.5 403.5,226.5 404.5,209.8 C405.5,192.9 403.6,175.1 401.5,158.4 C399.4,142.5 395.5,127.1 388.4,112.7 C381.3,98.3 372.1,84.8 362.4,72 C353.3,60.1 342.5,48.9 327.6,44.7 C326.1,44.3 325.5,46.5 326.9,46.9 L326.9,46.9 L326.9,46.9 Z" id="Shape"></path>
                <path d="M331.7,44.2 C340.7,44.2 347.9,50.3 354.3,56 C360.1,61.2 365.5,66.8 370.5,72.7 C381.1,85.4 389.4,99.9 395.5,115.3 C407.7,146.5 412,181.6 411.5,215 C411.3,234.3 407,254.4 391.9,267.7 C390.8,268.7 392.4,270.2 393.5,269.3 C405.9,258.4 411.5,242.6 413.1,226.6 C415,207.6 413.2,187.7 410.7,168.8 C406.3,134.3 395.6,100.5 373.6,73.1 C367.5,65.5 360.7,58.5 353.3,52.2 C347,46.9 340.2,42 331.6,42 C330.3,41.9 330.3,44.2 331.7,44.2 L331.7,44.2 L331.7,44.2 Z" id="Shape"></path>
                <path d="M336.1,42.4 C352.1,46 365.8,60.5 375.9,72.7 C386.4,85.3 394.9,99.6 401.3,114.6 C408.7,131.8 413.4,150.1 416.1,168.6 C418.9,187.2 420.6,206.7 419.1,225.5 C417.4,245.7 408.2,263.9 392.4,276.6 C391.3,277.5 392.9,279.1 394,278.2 C407.1,267.6 416.5,252.8 419.9,236.2 C423.9,217 421.8,195.9 419.5,176.6 C415.1,140.4 403.7,104.5 381.1,75.4 C375.1,67.7 368.5,60.6 361.1,54.3 C353.9,48.1 346.1,42.2 336.7,40.1 C335.3,39.9 334.7,42.1 336.1,42.4 L336.1,42.4 L336.1,42.4 Z" id="Shape"></path>
                <path d="M342.5,40.1 C369.1,54.7 391.1,76.9 405.7,103.5 C421.9,133.2 427.4,168.1 426.4,201.6 C425.8,221.6 422.1,241.3 414.4,259.8 C413.8,261.1 416,261.7 416.6,260.4 C430.6,227.1 431.1,189.8 425.3,154.6 C420.1,123 406.2,93.7 384.5,70.1 C372.7,57.3 358.9,46.5 343.7,38.2 C342.3,37.5 341.2,39.4 342.5,40.1 L342.5,40.1 L342.5,40.1 Z" id="Shape"></path>
                <path d="M347.7,38.5 C361.5,48.4 374.4,59.5 386.3,71.6 C392,77.4 397.8,83.4 402.3,90.3 C406.8,97.3 409.6,105.2 412.6,112.9 C424.8,144.6 433.5,176.7 429.9,210.9 C427.9,230 422.6,248.5 414.4,265.8 C413.8,267.1 415.7,268.2 416.3,266.9 C430.6,237 436,203.2 431.4,170.3 C428.8,151.8 422.9,134 416.4,116.6 C413.6,109.1 410.9,101.3 407.2,94.2 C403.5,87.1 398.3,81 392.8,75.2 C379.4,60.9 364.6,48 348.8,36.5 C347.7,35.7 346.5,37.6 347.7,38.5 L347.7,38.5 L347.7,38.5 Z" id="Shape"></path>
                <path d="M348.7,36.4 C357.6,38.9 365.4,45.2 372.5,51 C378.6,56 384.4,61.5 389.8,67.3 C400.7,79.1 410,92.4 417.3,106.6 C433,137 439.9,171.9 435.8,206 C433.2,227.5 426.1,248.2 415.3,267 C414.6,268.3 416.5,269.4 417.2,268.1 C453.9,204.5 442.3,123.7 394.4,69.1 C388,61.8 381,55 373.4,48.8 C366.1,42.9 358.4,36.6 349.2,34.1 C347.9,33.8 347.3,36 348.7,36.4 L348.7,36.4 L348.7,36.4 Z" id="Shape"></path>
                <path d="M351.9,35.5 C390.2,44.6 414.8,78.6 427.1,114 C433.7,133.2 438.2,153.7 440.3,174 C442.5,195.5 440.4,216.4 432.2,236.5 C423.3,258.5 410.8,279 395.9,297.5 C395,298.6 396.6,300.2 397.5,299.1 C410.9,282.6 422.2,264.5 431,245.1 C440.2,224.7 444.6,204 443.2,181.6 C441.9,160.1 437.3,138.2 430.7,117.7 C424.7,98.9 416,80.7 403.1,65.6 C389.9,50.1 372.5,38.1 352.6,33.4 C351.1,33 350.5,35.1 351.9,35.5 L351.9,35.5 L351.9,35.5 Z" id="Shape"></path>
                <path d="M344.5,37.9 C371.2,57.4 388.8,86.6 398.7,117.7 C404.3,135.3 407.5,153.5 409.4,171.8 C411.2,189.3 412.5,207.3 410.4,224.8 C408.1,244.3 400.8,263.5 386,276.9 C384.9,277.9 386.5,279.5 387.6,278.5 C414.9,253.6 415.2,214.2 412.4,180.1 C409.4,144.1 401.6,107.5 382.5,76.4 C372.8,60.7 360.5,46.8 345.6,35.9 C344.5,35.1 343.3,37 344.5,37.9 L344.5,37.9 L344.5,37.9 Z" id="Shape"></path>
                <path d="M338.5,36.8 C355.4,39.6 370.2,54.4 380.7,67.3 C392.1,81.2 400,97.9 407.3,114.3 C415.3,132.2 420.5,150.8 420.9,170.6 C421.3,189.9 418.1,209.1 413.9,227.9 C409.8,246.2 404.6,265.2 390.7,278.6 C389.7,279.6 391.2,281.2 392.3,280.2 C404.4,268.5 410.2,252.5 414.2,236.5 C419,217.2 422.8,197.2 423.2,177.2 C423.6,157.1 419.6,137.8 411.9,119.3 C404.6,101.8 396.1,83.7 384.5,68.6 C373.6,54.5 357.5,37.8 339.1,34.7 C337.7,34.4 337.1,36.6 338.5,36.8 L338.5,36.8 L338.5,36.8 Z" id="Shape"></path>
                <path d="M351.3,36.9 C381.6,51.7 404.6,78.7 416.4,110.2 C429.8,145.8 429.2,185.2 419,221.5 C413.2,242.2 404.4,261.8 393.6,280.4 C392.9,281.7 394.8,282.8 395.5,281.5 C414.8,248.3 427.9,211 428.7,172.3 C429.5,135.8 419.2,99.1 396.3,70.4 C384.4,55.5 369.5,43.3 352.4,35 C351.2,34.3 350,36.3 351.3,36.9 L351.3,36.9 L351.3,36.9 Z" id="Shape"></path>
                <path d="M356.7,34.5 C365.9,36.8 372.6,44.1 378.8,50.9 C384.9,57.6 390.4,64.7 395.4,72.2 C405,86.7 412.6,102.4 418.3,118.8 C424.7,137.1 428.9,156.3 429.7,175.8 C430.4,195.2 427,214.1 421,232.5 C414.4,252.9 407,274.4 393.5,291.4 C392.6,292.5 394.2,294.1 395.1,293 C407.1,278 413.8,259.7 420.2,241.8 C427.1,222.5 432,202.8 432,182.2 C432.1,144.1 419.2,105 398.7,73.1 C393.3,64.7 387.1,56.6 380.4,49.2 C373.9,42.1 366.9,34.6 357.3,32.2 C355.8,31.9 355.2,34.1 356.7,34.5 L356.7,34.5 L356.7,34.5 Z" id="Shape"></path>
                <path d="M368.1,39.2 C397.8,58.1 418.3,87.6 428.2,121.3 C438.8,157.7 435.9,196.4 424.4,232.2 C417.6,253.4 407.9,273.4 396.3,292.3 C395.5,293.5 397.5,294.7 398.2,293.4 C419.2,259.2 434.2,220.6 436.8,180.2 C439.1,144.3 430.6,107.6 410.6,77.5 C399.8,61.2 385.8,47.6 369.3,37.1 C368,36.4 366.9,38.4 368.1,39.2 L368.1,39.2 L368.1,39.2 Z" id="Shape"></path>
                <path d="M333.7,48 C341.1,51.4 346.4,57.4 351.9,63.2 C357.2,68.8 362.5,74.4 367.5,80.3 C378.3,92.8 388.2,106.5 394.3,121.9 C406.4,152.6 405.4,189 399.7,221 C396.5,239.3 390.6,257.1 381.2,273.2 C380.5,274.5 382.4,275.6 383.1,274.3 C400.4,244.9 405.7,210.1 405.6,176.5 C405.6,159.3 403.7,141.8 398,125.5 C392.7,110.4 384.1,97 374,84.6 C367.9,77.1 361.3,69.9 354.6,62.9 C348.6,56.6 342.8,49.8 334.8,46.1 C333.5,45.4 332.4,47.4 333.7,48 L333.7,48 L333.7,48 Z" id="Shape"></path>
                <path d="M330.7,42.9 C382.5,85.1 410.5,151.4 404,218.1 C402.1,237.4 397.6,256.7 387,273.2 C386.2,274.4 388.2,275.6 388.9,274.3 C407.4,245.4 409.7,206.6 405.6,173.5 C401.4,140 388.9,107.8 369.1,80.4 C358.6,65.8 346.2,52.7 332.2,41.3 C331.1,40.4 329.5,42 330.7,42.9 L330.7,42.9 L330.7,42.9 Z" id="Shape"></path>
                <path d="M335.8,43.5 C349.4,53.4 359.8,66.6 369,80.6 C377.9,94.2 385.6,108.7 391.6,123.9 C403.8,154.8 408.9,188.5 403.9,221.5 C401.1,239.9 395.2,257.7 386.2,274 C385.5,275.3 387.4,276.4 388.1,275.1 C422,213.8 409.1,139.4 372.8,82.4 C363,67.1 351.8,52.4 337,41.6 C335.7,40.7 334.6,42.6 335.8,43.5 L335.8,43.5 L335.8,43.5 Z" id="Shape"></path>
                <path d="M324.4,48.8 C333,50.1 339.2,56 345.3,61.6 C351.9,67.6 358.4,73.7 364.4,80.4 C374.6,91.7 383.1,104.6 389.6,118.4 C402.8,146.4 407.8,178.3 403.3,208.9 C400.3,228.8 393.5,247.9 386.7,266.8 C386.2,268.2 388.4,268.8 388.9,267.4 C395.4,249.3 402,231 405.1,212 C407.7,196.4 407.8,180.5 405.7,164.9 C401.5,134.4 388.7,105.1 368.7,81.8 C361.8,73.8 354.1,66.6 346.3,59.4 C340.1,53.7 333.7,47.9 325.1,46.6 C323.6,46.4 323,48.6 324.4,48.8 L324.4,48.8 L324.4,48.8 Z" id="Shape"></path>
                <path d="M324.5,53.8 C349.1,68.7 369,90.7 381.6,116.6 C387.9,129.6 392.4,143.5 394.6,157.8 C396,166.4 396.4,175.1 396.6,183.7 C396.8,193 397.1,202.4 395.6,211.6 C392.5,231.5 386.2,251.1 381.2,270.6 C380.8,272 383,272.6 383.4,271.2 C388.1,252.6 393.8,233.9 397.3,215 C400.4,197.9 399.6,179.1 397.4,161.9 C393.8,133.4 381.6,106.3 363.3,84.2 C352.6,71.4 339.9,60.4 325.6,51.8 C324.4,51.1 323.3,53.1 324.5,53.8 L324.5,53.8 L324.5,53.8 Z" id="Shape"></path>
                <path d="M306.9,48.6 C330.2,66 351.3,88.7 364.6,114.7 C372,129.2 374.4,145.8 376.9,161.6 C379.5,178.1 381,194.8 379.9,211.5 C378.7,230.2 374.6,248.9 371.4,267.4 C371.2,268.8 373.3,269.4 373.6,268 C376.4,251.4 379.8,234.8 381.6,218.1 C383.4,201.3 382.4,184.4 380.1,167.7 C377.9,151.5 375.6,134 369.1,118.9 C363.3,105.4 354.3,92.9 345,81.6 C334.2,68.4 321.7,56.7 308.1,46.5 C306.8,45.8 305.7,47.8 306.9,48.6 L306.9,48.6 L306.9,48.6 Z" id="Shape"></path>
                <path d="M322,50.7 C345.8,67.8 363.3,92 375.8,118.3 C383,133.5 388.5,149.1 390,166 C391.4,182 391,198.3 389,214.2 C386.6,233.2 381.9,251.9 375.1,269.8 C374.6,271.2 376.8,271.7 377.3,270.4 C389.6,238.1 395,203.2 392.5,168.7 C390.3,137.8 375.9,107.8 357.6,83.1 C347.9,70 336.5,58.3 323.2,48.8 C322,47.9 320.9,49.8 322,50.7 L322,50.7 L322,50.7 Z" id="Shape"></path>
                <path d="M313.6,54.6 C329.6,65.6 344.1,78.6 354.9,94.8 C364.9,109.8 371.7,126.9 375.5,144.5 C379.7,164.1 380.1,184.5 377.6,204.4 C375.1,224.2 366.7,243.8 368.2,263.9 C368.3,265.3 370.6,265.3 370.4,263.9 C369.1,246.6 375.7,229.9 378.5,213.1 C381.1,197.5 382.1,181.6 380.8,165.9 C378.5,137 368.8,108.5 350.9,85.6 C340.8,72.6 328.2,62 314.7,52.7 C313.5,51.8 312.4,53.8 313.6,54.6 L313.6,54.6 L313.6,54.6 Z" id="Shape"></path>
                <path d="M307.6,53.4 C322.8,62.8 332.7,78.7 342.4,93.3 C352.4,108.4 361.7,124.4 366.3,142 C375.8,178.6 356.4,214.9 363.7,251.6 C364,253 366.2,252.4 365.9,251 C359.8,220.3 373,190.2 371.3,159.5 C369.8,131.1 354.3,106.3 338.6,83.6 C330.2,71.5 321.5,59.3 308.8,51.5 C307.5,50.7 306.4,52.7 307.6,53.4 L307.6,53.4 L307.6,53.4 Z" id="Shape"></path>
                <path d="M300.9,53.8 C324.8,78.4 347,105.7 357.5,138.9 C363.2,157 365,176.1 361.7,194.8 C358.6,212.3 352.7,229.4 355,247.4 C355.2,248.8 357.4,248.8 357.2,247.4 C354.7,227.7 362.2,209 364.7,189.7 C367.1,171.8 364.7,153.6 359,136.6 C348.2,103.8 326.1,76.7 302.3,52.2 C301.5,51.2 299.9,52.8 300.9,53.8 L300.9,53.8 L300.9,53.8 Z" id="Shape"></path>
                <path d="M290.4,57.8 C314.2,72.6 331.4,99.2 339.5,125.7 C344.3,141.4 344.7,157.8 345,174.1 C345.4,191.6 345.7,209.2 346.1,226.7 C346.1,228.1 348.4,228.2 348.3,226.7 C347.9,207.9 347.5,189.1 347.1,170.3 C346.7,154.1 345.9,137.9 340.7,122.4 C332,96.5 315,70.7 291.4,56 C290.3,55.1 289.2,57 290.4,57.8 L290.4,57.8 L290.4,57.8 Z" id="Shape"></path>
                <path d="M280.5,61.2 C286.4,66.5 290.4,74.1 294.9,80.7 C299.9,88 306.1,94.2 311.9,100.8 C327.6,118.7 341.2,139.7 338.7,164.7 C338.6,166.1 340.8,166.1 340.9,164.7 C343.3,141.3 331.6,120.5 316.9,103.2 C310.2,95.3 302.6,88.1 296.8,79.6 C292.2,72.9 288.2,65.1 282.1,59.7 C281,58.7 279.4,60.2 280.5,61.2 L280.5,61.2 L280.5,61.2 Z" id="Shape"></path>
                <path d="M270.9,72.9 C288.3,91.5 302,113.9 312.9,136.8 C318.3,148.2 323,160 326.3,172.2 C330.1,186.3 332.1,200.8 336,214.8 C336.4,216.2 338.6,215.6 338.2,214.2 C334.1,199.7 332.2,184.7 328.1,170.2 C324.8,158.3 320.1,146.8 314.8,135.6 C303.8,112.5 290,90 272.4,71.2 C271.6,70.2 270,71.8 270.9,72.9 L270.9,72.9 L270.9,72.9 Z" id="Shape"></path>
                <path d="M204.8,117.3 C199.7,143.7 206,171.4 217.8,195.2 C224.9,209.4 233.4,222.9 242.4,236 C250.7,248.1 259.9,259.8 270.6,269.9 C282.1,280.7 295.3,289.5 310.2,294.9 C311.6,295.4 312.1,293.2 310.8,292.7 C275.4,279.8 252.3,248.4 233.1,217.6 C214.5,187.8 200,153.8 206.9,117.9 C207.2,116.5 205.1,115.9 204.8,117.3 L204.8,117.3 L204.8,117.3 Z" id="Shape"></path>
                <path d="M215.1,110.9 C217.6,139 225.2,166.9 234.3,193.5 C244.1,222.1 260.3,247.8 282.5,268.4 C294.1,279.1 308.6,286.3 324,289.4 C325.4,289.7 326,287.5 324.6,287.2 C306.3,283.5 290.5,274.2 277.9,260.5 C264.8,246.3 252.8,231.2 244.7,213.6 C237,197 231.8,179.2 226.9,161.7 C222.3,145.1 218.8,128 217.3,110.8 C217.2,109.5 215,109.5 215.1,110.9 L215.1,110.9 L215.1,110.9 Z" id="Shape"></path>
                <path d="M237.7,88 C238,113.4 249,138.8 260.5,160.9 C275.8,190.4 294.6,218.3 313.8,245.3 C318.4,251.7 323.3,257.8 329.8,262.4 C337,267.5 345.2,270.8 353.3,274 C354.6,274.5 355.2,272.4 353.9,271.8 C346.8,268.9 339.6,266 333.1,261.8 C325.7,257 320.3,250.5 315.2,243.4 C306.4,230.9 297.9,218.2 289.5,205.5 C273.6,181.1 257.1,155.1 247.9,127.2 C243.8,114.7 240.1,101.2 239.9,88 C239.9,86.6 237.7,86.6 237.7,88 L237.7,88 L237.7,88 Z" id="Shape"></path>
                <path d="M201.5,113.8 C172.3,124.3 141.3,133.3 115,150.3 C90.3,166.2 71.9,189.6 54.9,213.2 C48.2,222.5 33.6,238 44.6,249.4 C45.6,250.4 47.2,248.9 46.2,247.8 C38.1,239.4 46.7,228.5 51.9,221.3 C56.9,214.3 61.8,207.4 67,200.6 C77.6,186.7 89.1,173.4 102.5,162.3 C131,138.7 167.9,128.3 202.1,116 C203.5,115.5 202.9,113.3 201.5,113.8 L201.5,113.8 L201.5,113.8 Z" id="Shape"></path>
                <path d="M214.5,106.1 C178.1,112.1 145.4,130 114.3,149.2 C99.4,158.4 84.6,167.4 73,180.7 C67.9,186.6 63.5,193 59.8,199.9 C55.9,207.1 54.1,216.7 48.4,222.6 C47.4,223.6 49,225.2 50,224.2 C54.9,219 56.5,211.6 59.6,205.3 C63.2,197.8 67.8,190.6 73.1,184.2 C84.8,170.1 100,160.7 115.5,151.2 C146.4,132.1 178.9,114.3 215.1,108.3 C216.5,108 215.9,105.9 214.5,106.1 L214.5,106.1 L214.5,106.1 Z" id="Shape"></path>
                <path d="M222.5,100.8 C209.6,94.1 194.3,100.9 181.5,105 C166.6,109.8 151.8,115.1 138.2,123 C124.9,130.8 113.3,141.3 101.7,151.4 C90.3,161.4 79.2,171.9 69.2,183.4 C58.4,195.9 49,209.6 42.2,224.7 C41.6,226 43.6,227.2 44.1,225.8 C55.6,200.1 74.6,179 95.2,160.1 C106.2,150 117.5,139.7 129.7,131 C142,122.2 156,116 170.3,111 C178.1,108.3 185.9,105.8 193.8,103.4 C202.7,100.7 212.5,98.1 221.3,102.7 C222.7,103.4 223.8,101.4 222.5,100.8 L222.5,100.8 L222.5,100.8 Z" id="Shape"></path>
                <path d="M226.8,93.1 C211,81.3 190.3,87.9 173.6,94 C156.6,100.3 140.3,108.7 125.2,118.8 C110.2,129 96.3,140.9 84.1,154.4 C72.1,167.6 62.3,182.5 51.9,197 C39.9,213.7 26.8,229.8 8.7,240.1 C7.4,240.8 8.6,242.8 9.8,242 C39.3,225.3 55.1,194.2 75.3,168.3 C97.6,139.7 127,116.7 160.2,101.8 C179.1,93.3 206.7,80.9 225.6,94.9 C226.9,95.9 228,93.9 226.8,93.1 L226.8,93.1 L226.8,93.1 Z" id="Shape"></path>
                <path d="M217.3,102.6 C203,94.3 186,100.8 171.8,106 C155.4,112.1 139.4,119.6 125.1,129.9 C94.8,151.6 75.2,185.6 54.1,215.6 C53.3,216.8 55.2,217.9 56,216.7 C66.5,201.8 76.7,186.6 87.5,172 C97.9,157.9 109.3,144.4 123.3,133.9 C136.7,123.8 151.9,116.2 167.4,110.1 C182,104.4 201,95.9 216,104.6 C217.4,105.3 218.6,103.4 217.3,102.6 L217.3,102.6 L217.3,102.6 Z" id="Shape"></path>
                <path d="M212.7,104 C199.8,100.5 187.2,105.9 175.3,110.5 C162.5,115.5 149.6,120.7 137.8,127.7 C114.9,141.3 96.9,161.5 79.3,181.2 C78.3,182.3 79.9,183.9 80.9,182.8 C97.5,164.1 114.5,145 135.9,131.5 C147.1,124.4 159.3,119.2 171.7,114.3 C184.3,109.3 198.4,102.4 212.2,106.1 C213.5,106.6 214.1,104.4 212.7,104 L212.7,104 L212.7,104 Z" id="Shape"></path>
                <path d="M209,107.4 C191.9,104.5 176,112.1 160.7,118.8 C144.7,125.8 128.4,132.7 113.7,142.1 C100.7,150.4 88.8,160.6 78.5,172.1 C67.7,184.3 60.2,199.6 47.8,210.3 C46.7,211.3 48.3,212.8 49.4,211.9 C61,201.8 68,187.7 77.9,176.2 C87.8,164.6 99.4,154.3 112.1,145.8 C125.5,136.9 140.2,130.3 154.9,123.8 C171.4,116.5 189.7,106.4 208.4,109.6 C209.8,109.8 210.4,107.6 209,107.4 L209,107.4 L209,107.4 Z" id="Shape"></path>
                <path d="M223.4,96.6 C220,91.2 214.5,87.3 208.1,86.6 C199.5,85.6 189.9,90.2 181.9,93.1 C165,99.1 148.4,106.5 133.1,115.8 C117.8,125.1 104.1,136.6 92,149.7 C79.1,163.7 67.8,179 55.7,193.6 C48.9,201.8 41.7,209.8 34.1,217.3 C30.3,221.1 26.4,224.8 22.4,228.4 C20.4,230.2 18.4,232 16.3,233.7 C15.4,234.5 14.5,235.3 13.6,236 C12.4,237 9.9,240.3 9,240.7 C10.3,240.2 9.8,238 8.4,238.5 C8.2,238.6 8.1,238.6 7.9,238.7 C7.6,238.8 7.2,239.1 7.1,239.5 C6.3,244.7 12.5,239.9 13.8,238.8 C21.4,232.5 28.7,225.9 35.7,218.9 C49.3,205.3 61.3,190.4 73.3,175.4 C84.9,160.9 96.9,146.4 111.1,134.3 C125.5,122.1 141.9,112.4 159.1,104.6 C168.8,100.2 178.9,96.3 189,92.9 C194.3,91.1 200.2,88.6 205.9,88.6 C212.4,88.6 218.1,92.2 221.5,97.6 C222.3,99 224.2,97.9 223.4,96.6 L223.4,96.6 L223.4,96.6 Z" id="Shape"></path>
                <path d="M223.6,99.6 C215.4,85.5 194.3,93.9 182.7,98.2 C165.4,104.8 148.5,113.4 132.1,121.9 C116.2,130.2 104.3,142.3 92.5,155.6 C79.7,170.1 66.8,184.6 54.2,199.3 C46.9,207.9 39.6,216.5 32.5,225.3 C26.1,233.2 19.8,242.2 9.9,246.1 C8.6,246.6 9.1,248.8 10.5,248.3 C24.6,242.9 33.4,227.6 42.7,216.5 C54.5,202.3 66.5,188.5 78.7,174.6 C90.1,161.6 101.1,147.6 114.3,136.3 C128,124.6 145.5,117.6 161.6,109.9 C170.9,105.4 180.4,101.1 190.2,97.9 C199.7,94.8 215.2,89.7 221.6,100.7 C222.4,102 224.3,100.9 223.6,99.6 L223.6,99.6 L223.6,99.6 Z" id="Shape"></path>
                <path d="M234,85.4 C196.9,71.3 156.7,85.6 126.2,108.2 C110.2,120.1 96,134.2 82.2,148.5 C68.3,163 55.2,178 44.1,194.8 C32.8,211.9 21.7,230.5 2.7,240 C3.2,240.1 3.7,240.3 4.2,240.4 C2.8,238.4 2.7,236.3 4,234.1 C4.7,232.8 2.7,231.7 2.1,233 C0.6,235.9 0.6,238.7 2.3,241.5 C2.6,242 3.3,242.2 3.8,241.9 C18.4,234.6 28.6,221.8 37.6,208.6 C48.6,192.4 59.3,176.5 72.5,162 C99.1,132.7 129.1,101.5 167.3,88.2 C188.6,80.8 212,79.4 233.4,87.5 C234.8,88.1 235.3,85.9 234,85.4 L234,85.4 L234,85.4 Z" id="Shape"></path>
                <path d="M233.1,89.3 C218.9,80.4 201.6,82.3 186,85.8 C168.7,89.7 152.1,96.3 136.7,105.2 C102.3,125.2 79.2,157.3 55,188 C47.7,197.3 40.3,206.6 33,215.8 C25.8,224.9 17.2,238.2 3.7,235.7 C2.3,235.4 1.7,237.6 3.1,237.9 C20.8,241.1 32.1,220.6 41.3,208.9 C54.3,192.4 67.2,175.8 80.4,159.5 C92.8,144.1 106.1,129.4 122,117.6 C136.8,106.7 153.2,98.1 170.7,92.4 C189.6,86.2 213.8,79.9 231.9,91.2 C233.2,92 234.4,90 233.1,89.3 L233.1,89.3 L233.1,89.3 Z" id="Shape"></path>
                <path d="M231.3,84.7 C217.1,71 196.3,74.3 179.1,79.4 C159.4,85.3 141,94.8 124.5,107.1 C93.7,130.1 66.5,159.5 48.4,193.7 C40.2,209.1 26.1,234.1 40.6,249.8 C41.6,250.9 43.2,249.3 42.2,248.2 C34.6,240 36.1,228.7 39.5,219 C42.5,210.4 46.4,202.1 50.7,194.1 C59.1,178.4 69.4,163.9 81.1,150.5 C104.7,123.4 133.6,98.8 167.4,85.8 C186.3,78.5 213,70.1 229.7,86.3 C230.7,87.3 232.3,85.7 231.3,84.7 L231.3,84.7 L231.3,84.7 Z" id="Shape"></path>
                <path d="M37.6,228.9 C36.7,229.4 35.8,230 34.9,230.5 C33.7,231.3 34.8,233.2 36,232.4 C36.9,231.9 37.8,231.3 38.7,230.8 C40,230.1 38.8,228.1 37.6,228.9 L37.6,228.9 L37.6,228.9 Z" id="Shape"></path>
                <path d="M239,81.4 C225.7,69.7 203.8,73 187.7,75.2 C168.1,77.9 148.7,84 132.5,95.5 C124,101.5 116.5,108.7 109.1,115.8 C101.6,122.9 94.2,130.1 88,138.5 C81.6,147.1 76.5,156.5 70.8,165.5 C65.5,173.9 59.8,182.1 53.8,190.1 C39.6,208.7 22.9,225.5 2.9,238.1 C1.7,238.9 2.8,240.8 4,240 C35.8,220 58.8,189.7 78,158.1 C83.6,148.8 89.3,139.7 96.6,131.6 C103.4,124.1 110.9,117.1 118.3,110.3 C133.6,96.2 150.5,86.1 170.8,81 C181.7,78.2 192.9,76.7 204.1,76.2 C215.5,75.6 228.3,75.3 237.4,83.3 C238.5,83.9 240.1,82.4 239,81.4 L239,81.4 L239,81.4 Z" id="Shape"></path>
                <path d="M240.1,70.3 C221.3,65.8 202,66.1 183.1,69.8 C164.4,73.4 143.9,79.5 127.9,90.2 C120.4,95.2 113.8,101.6 107.2,107.8 C100,114.5 92.9,121.2 86.1,128.2 C72.5,142.3 61.6,157.5 52.5,174.8 C42.4,194 32,214.9 11.4,224.7 C10.1,225.3 11.2,227.3 12.5,226.6 C27.4,219.5 37.6,206.2 45.7,192.1 C55.8,174.4 64.2,156.4 77.5,140.8 C89.7,126.5 103.7,113.5 117.7,101 C132.9,87.4 151.7,80.1 171.2,74.8 C193.5,68.8 216.8,67 239.4,72.4 C240.9,72.8 241.5,70.7 240.1,70.3 L240.1,70.3 L240.1,70.3 Z" id="Shape"></path>
                <path d="M261.5,69.8 C255,64.1 246.8,62.5 238.4,62.1 C228.1,61.6 217.7,62.1 207.4,62.5 C186.5,63.4 165.4,66 146.2,74.8 C108.5,92 80.5,123.4 60.1,158.6 C48.1,179.3 37.1,200.8 20.7,218.4 C19.7,219.5 21.3,221.1 22.3,220 C48.9,191.3 61.6,153 87.1,123.3 C99.9,108.3 115.1,95.3 132,85 C150.9,73.5 171.3,67.6 193.3,65.6 C204.6,64.6 216,64.3 227.3,64.2 C238.5,64.1 251.1,63.4 260.1,71.3 C261,72.4 262.6,70.8 261.5,69.8 L261.5,69.8 L261.5,69.8 Z" id="Shape"></path>
                <path d="M259.3,66.6 C254.7,59.7 245.7,58.3 238,57.1 C227.8,55.4 217.5,55.1 207.2,56.1 C197,57.1 187.2,59.5 177.4,62.7 C167.6,65.9 157.2,67.2 147.5,70.5 C129.8,76.5 114.1,90.4 101.3,103.5 C88,117.1 76.6,132.4 65.5,147.8 C50.5,168.5 35.7,189.3 20.8,210 C20,211.2 21.9,212.3 22.7,211.1 C34.8,194.2 47,177.3 59.1,160.4 C70.1,145.1 81,129.7 93.3,115.5 C105.1,101.8 118.4,89.2 133.8,79.7 C142.7,74.2 151.5,71.6 161.6,69.5 C171,67.5 179.9,63.9 189.1,61.6 C200.4,58.7 212.1,57.5 223.7,58.1 C229.8,58.4 235.8,59.1 241.8,60.3 C247.5,61.5 253.7,62.8 257.2,68 C258.2,69 260.1,67.9 259.3,66.6 L259.3,66.6 L259.3,66.6 Z" id="Shape"></path>
                <path d="M217.7,51.1 C204.5,43.3 189.6,38.8 174.2,38.1 C158.1,37.4 143.2,41.7 128.2,47.2 C113.1,52.7 98,59.1 85,68.9 C72.6,78.2 61.8,90.5 52.5,102.9 C47.3,109.8 42.7,117.2 40,125.5 C38.2,130.9 35.6,139.2 39.9,144 C40.9,145.1 42.5,143.5 41.5,142.4 C38,138.5 40.6,131.1 41.9,126.8 C43.3,122.2 45.4,117.8 47.9,113.7 C52.7,105.6 58.8,98.3 65,91.3 C77.7,77 91.6,65.5 109.1,57.4 C125.6,49.7 144.2,42.2 162.5,40.6 C181.4,39 200.3,43.5 216.6,53 C217.8,53.8 218.9,51.8 217.7,51.1 L217.7,51.1 L217.7,51.1 Z" id="Shape"></path>
                <path d="M209.4,54.2 C183.6,37 151.1,39.2 123,49 C116.4,51.3 109.9,54 104.3,58.3 C98.1,63 92.6,68.7 87.1,74.1 C75.9,85 64.2,96.1 54.4,108.4 C45.2,120 38.5,135 44.6,149.6 C45.1,150.9 47.3,150.3 46.8,149 C39.2,130.7 51.9,113.9 63.8,101.1 C76.2,87.7 89,74.2 102.9,62.3 C116.8,50.5 138.3,45.4 156.2,43.9 C174.5,42.4 193,45.9 208.3,56.1 C209.4,56.9 210.6,55 209.4,54.2 L209.4,54.2 L209.4,54.2 Z" id="Shape"></path>
                <path d="M207,49.8 C195.7,41.6 181,41 167.5,41.1 C151.4,41.2 134.9,42.9 119.4,47.3 C91.7,55.1 71.8,78.8 55,101 C45.2,113.9 37.9,129.1 40.8,145.6 C41,147 43.2,146.4 43,145 C39.4,124.7 52.2,107.4 64.6,92.8 C75.1,80.4 85.8,67.4 99.7,58.5 C115.4,48.4 134.9,45.4 153.2,44 C170.1,42.7 191.4,41.3 205.8,51.8 C207,52.6 208.1,50.6 207,49.8 L207,49.8 L207,49.8 Z" id="Shape"></path>
                <path d="M201.5,54.2 C184.3,43.1 164,43.1 144.4,46 C134.2,47.5 124.2,50.1 114.6,53.9 C110.4,55.6 106.3,57.4 102.3,59.5 C99.8,60.8 96.9,62 97.1,65.2 C97.2,66.6 99.4,66.6 99.3,65.2 C99.1,62 108.1,59.1 110.5,58 C114.7,56.1 119,54.5 123.4,53.1 C131.7,50.4 140.3,48.6 149,47.6 C166.9,45.4 184.8,46 200.3,56.1 C201.6,57 202.8,55 201.5,54.2 L201.5,54.2 L201.5,54.2 Z" id="Shape"></path>
                <path d="M192,57.7 C185.5,52.5 177.6,50.7 169.5,49.7 C158.1,48.3 146.5,47.4 135,48.1 C125.5,48.7 116,50.5 107.1,54.1 C102.7,55.9 98.5,58.1 94.7,60.8 C92.6,62.2 90.4,63.6 91.1,66.3 C91.4,67.7 93.6,67.1 93.3,65.7 C92.7,63.2 101.7,59.1 103.7,58.1 C107.6,56.2 111.6,54.7 115.8,53.5 C123.9,51.2 132.4,50.3 140.8,50.1 C149.4,50 157.9,50.6 166.5,51.6 C175,52.5 183.7,53.9 190.5,59.3 C191.5,60.2 193.2,58.6 192,57.7 L192,57.7 L192,57.7 Z" id="Shape"></path>
                <path d="M181.1,56.6 C163.8,51.9 145.6,51.2 127.7,51.4 C112.6,51.6 96.6,54.3 86.3,66.4 C85.4,67.5 86.9,69.1 87.9,68 C98.7,55.3 115.7,53.6 131.4,53.6 C147.9,53.7 164.5,54.4 180.5,58.7 C181.9,59.2 182.5,57 181.1,56.6 L181.1,56.6 L181.1,56.6 Z" id="Shape"></path>
                <path d="M175.4,58.6 C159.1,56.2 142.5,55.7 126.1,57.4 C113.3,58.7 98.4,60 88.6,69.2 C87.5,70.2 89.1,71.8 90.2,70.8 C100.3,61.4 116.9,60.4 130,59.3 C145,58.1 160,58.6 174.9,60.8 C176.2,61 176.8,58.8 175.4,58.6 L175.4,58.6 L175.4,58.6 Z" id="Shape"></path>
                <path d="M172.8,63.9 C151.9,59.5 130.5,61.9 110,67.1 C93.1,71.3 75.6,77.4 64.3,91.4 C63.4,92.5 65,94.1 65.9,93 C77,79.2 94,73.4 110.6,69.2 C130.7,64.2 151.7,61.7 172.2,66 C173.6,66.4 174.2,64.2 172.8,63.9 L172.8,63.9 L172.8,63.9 Z" id="Shape"></path>
                <path d="M160.8,64.4 C142.6,65.1 124.5,68.2 107.1,73.8 C98.8,76.5 90.7,79.7 82.8,83.4 C76.3,86.5 67.6,89.6 64.4,96.5 C63.8,97.8 65.7,98.9 66.3,97.6 C69.7,90.5 80.4,86.9 87.2,83.8 C95,80.3 103,77.3 111.1,74.8 C127.3,69.9 143.9,67.2 160.8,66.6 C162.2,66.6 162.2,64.3 160.8,64.4 L160.8,64.4 L160.8,64.4 Z" id="Shape"></path>
                <path d="M145.2,70.4 C127.5,71.6 109.9,77.1 93.4,83.4 C79.8,88.6 66.9,95.9 58.8,108.3 C58,109.5 60,110.6 60.7,109.4 C69,96.6 82.8,89.5 96.8,84.4 C112.3,78.7 128.6,73.7 145.2,72.5 C146.6,72.6 146.6,70.3 145.2,70.4 L145.2,70.4 L145.2,70.4 Z" id="Shape"></path>
                <path d="M132.9,77.8 C114.3,82.5 95.6,88.3 79.3,98.8 C72.5,103.2 66.2,108.3 60.7,114.3 C56.4,119 50,125.4 51.2,132.3 C51.4,133.7 53.6,133.1 53.4,131.7 C52.6,126.9 57.4,121.7 60.2,118.3 C62.6,115.5 65.2,112.8 68,110.3 C73.5,105.4 79.6,101.1 86,97.5 C100.8,89.1 117.2,84.2 133.6,80 C134.9,79.6 134.3,77.5 132.9,77.8 L132.9,77.8 L132.9,77.8 Z" id="Shape"></path>
                <path d="M117,88.1 C109,88.5 102.5,92.7 96,97 C88.4,101.9 80.7,106.7 73.4,111.9 C60.9,120.8 49.6,131.9 45.7,147.1 C45.3,148.5 47.5,149.1 47.9,147.7 C51.8,132.4 63.4,121.6 75.9,112.8 C81.8,108.7 87.9,104.8 93.9,100.9 C101,96.3 108.2,90.7 117,90.3 C118.5,90.3 118.5,88.1 117,88.1 L117,88.1 L117,88.1 Z" id="Shape"></path>
                <path d="M113,87.3 C99.3,87.3 88.6,93.4 78.7,102.3 C68.7,111.3 56.5,120.1 50.3,132.3 C49.6,133.6 51.6,134.7 52.2,133.4 C57.8,122.4 68.5,114.5 77.6,106.3 C88,96.8 98.4,89.5 113,89.5 C114.4,89.6 114.4,87.3 113,87.3 L113,87.3 L113,87.3 Z" id="Shape"></path>
                <path d="M120.5,79.3 C111.7,80.1 103.5,83.2 95.6,87 C87.1,91.2 78.5,95.5 70.5,100.8 C57.3,109.6 46,122.1 44,138.4 C43.8,139.8 46.1,139.8 46.2,138.4 C48.2,121.7 60.7,109.4 74.4,100.9 C80.8,96.9 87.5,93.5 94.2,90.2 C102.5,86 111,82.4 120.4,81.6 C121.9,81.4 121.9,79.2 120.5,79.3 L120.5,79.3 L120.5,79.3 Z" id="Shape"></path>
                <path d="M104.6,97.1 C78.5,110.6 51.5,127.7 42.1,157.3 C41.7,158.7 43.8,159.3 44.3,157.9 C53.5,128.9 80.2,112.2 105.8,99.1 C107.1,98.4 105.9,96.5 104.6,97.1 L104.6,97.1 L104.6,97.1 Z" id="Shape"></path>
                <path d="M89.5,111.2 C83.2,117.9 75.6,123.1 68.7,129 C62.6,134.3 57,140.2 52.1,146.6 C42.4,159.1 35.2,173.4 30.8,188.6 C30.4,190 32.6,190.6 33,189.2 C37.6,173.3 45.3,158.5 55.8,145.6 C60.6,139.8 65.9,134.4 71.7,129.5 C78.3,123.9 85.4,119 91.3,112.7 C92,111.8 90.4,110.2 89.5,111.2 L89.5,111.2 L89.5,111.2 Z" id="Shape"></path>
                <path d="M80.6,123.7 C57.7,145.2 38.9,170.7 25.1,199 C24.5,200.3 26.4,201.4 27,200.1 C40.7,172 59.3,146.7 82.1,125.3 C83.3,124.3 81.7,122.7 80.6,123.7 L80.6,123.7 L80.6,123.7 Z" id="Shape"></path>
                <path d="M77.4,125 C52.6,145.5 33.8,172.4 23.1,202.7 C22.6,204.1 24.8,204.7 25.3,203.3 C36,173.4 54.6,146.8 79.1,126.6 C80.1,125.7 78.5,124.1 77.4,125 L77.4,125 L77.4,125 Z" id="Shape"></path>
                <path d="M83.9,113.6 C54.1,131.4 32.6,161.2 25.2,195.1 C24.9,196.5 27.1,197.1 27.4,195.7 C34.7,162.3 55.7,133 85.1,115.5 C86.3,114.8 85.1,112.9 83.9,113.6 L83.9,113.6 L83.9,113.6 Z" id="Shape"></path>
                <path d="M244.4,66.4 C229.6,56.7 208.5,56 191.5,58.2 C173.3,60.6 155.8,67.2 140.2,76.8 C124.6,86.4 110.8,98.9 98.9,112.8 C86.7,126.9 77.3,142.7 66.7,157.9 C59.6,168.1 50.9,176.8 42.4,185.7 C33.6,194.9 24.8,204.1 16,213.3 C15,214.3 16.6,215.9 17.6,214.9 C31.8,200.1 46.8,185.7 60.2,170.1 C72,156.4 80.4,140.2 91.3,125.9 C113.7,96.4 143.5,71.3 180.2,62.6 C199.8,58 225.8,56.8 243.3,68.4 C244.5,69.1 245.6,67.2 244.4,66.4 L244.4,66.4 L244.4,66.4 Z" id="Shape"></path>
                <path d="M43,211.5 C39.9,219.1 35.5,227.1 34.7,235.3 C34,242.1 37.2,248 40.6,253.6 C41.3,254.8 43.3,253.7 42.5,252.5 C38.2,245.4 35.5,239 37.9,230.7 C39.7,224.4 42.7,218.2 45.2,212.1 C45.7,210.8 43.6,210.2 43,211.5 L43,211.5 L43,211.5 Z" id="Shape"></path>
                <path d="M29.5,228.1 C29.4,239.2 32.3,249.8 38.2,259.2 C39,260.4 40.9,259.3 40.1,258.1 C34.5,249 31.7,238.8 31.8,228.1 C31.8,226.7 29.5,226.7 29.5,228.1 L29.5,228.1 L29.5,228.1 Z" id="Shape"></path>
                <path d="M28.4,229.1 C27.2,240.8 30.3,252.1 37.4,261.5 C38.3,262.6 40.2,261.5 39.3,260.4 C32.4,251.3 29.4,240.5 30.6,229.2 C30.8,227.6 28.5,227.7 28.4,229.1 L28.4,229.1 L28.4,229.1 Z" id="Shape"></path>
                <path d="M22.7,231.6 C23.1,242.6 27.1,252.6 34.3,260.8 C35.3,261.9 36.8,260.3 35.9,259.2 C29.1,251.4 25.3,241.9 24.9,231.6 C24.9,230.2 22.6,230.2 22.7,231.6 L22.7,231.6 L22.7,231.6 Z" id="Shape"></path>
                <path d="M43.5,214 C36.1,226.2 34.5,240.8 39.1,254.2 C39.6,255.6 41.7,255 41.3,253.6 C36.9,240.7 38.4,226.8 45.5,215.1 C46.2,213.9 44.2,212.7 43.5,214 L43.5,214 L43.5,214 Z" id="Shape"></path>
                <path d="M47.5,143 C34,161 31.9,183.8 30.3,205.5 C30.2,206.9 32.4,206.9 32.5,205.5 C34.1,184.1 36.1,161.8 49.4,144.1 C50.3,143 48.3,141.9 47.5,143 L47.5,143 L47.5,143 Z" id="Shape"></path>
                <path d="M40.6,143.5 C27.4,164.7 20.3,189 20.1,214 C20.1,215.4 22.3,215.4 22.3,214 C22.5,189.4 29.5,165.5 42.5,144.7 C43.3,143.4 41.4,142.3 40.6,143.5 L40.6,143.5 L40.6,143.5 Z" id="Shape"></path>
                <path d="M227,54.6 C209.2,25.2 171,15.7 141.4,33.1 C140.2,33.8 141.3,35.8 142.5,35 C171.1,18.2 207.8,27.3 225,55.7 C225.8,56.9 227.7,55.8 227,54.6 L227,54.6 L227,54.6 Z" id="Shape"></path>
                <path d="M237.3,52.4 C224.7,32.5 203,19.9 179.4,18.8 C178,18.7 178,21 179.4,21 C202.1,22.1 223.1,34.3 235.3,53.5 C236.2,54.7 238.1,53.6 237.3,52.4 L237.3,52.4 L237.3,52.4 Z" id="Shape"></path>
                <path d="M222.3,50.5 C210.2,36 191.6,28.9 173,28.5 C150.8,28 129.6,36.8 110.7,47.8 C109.4,48.5 110.6,50.5 111.8,49.7 C129.9,39.2 150.1,30.7 171.4,30.7 C189.9,30.8 208.5,37.7 220.6,52.1 C221.7,53.2 223.2,51.6 222.3,50.5 L222.3,50.5 L222.3,50.5 Z" id="Shape"></path>
                <path d="M221.5,50.9 C196.5,21.5 154.5,28.6 123.5,43 C122.2,43.6 123.3,45.6 124.6,44.9 C154.7,30.9 195.5,23.9 219.9,52.5 C220.8,53.6 222.4,52 221.5,50.9 L221.5,50.9 L221.5,50.9 Z" id="Shape"></path>
                <path d="M233.7,52.7 C214.6,28.5 183.6,8.3 152.2,21.8 C150.9,22.4 152,24.3 153.3,23.7 C183.7,10.6 213.7,31 232,54.2 C233,55.4 234.6,53.8 233.7,52.7 L233.7,52.7 L233.7,52.7 Z" id="Shape"></path>
                <path d="M242.6,53.2 C242.6,47.6 238.9,43.7 235.4,39.8 C230.9,34.8 226.2,29.9 220.9,25.7 C211,18 198.8,13.3 186.2,16 C184.8,16.3 185.4,18.5 186.8,18.2 C198.1,15.8 209.3,19.9 218.4,26.7 C222.7,29.9 226.6,33.7 230.3,37.6 C234.3,41.9 240.3,47 240.4,53.3 C240.4,54.6 242.6,54.6 242.6,53.2 L242.6,53.2 L242.6,53.2 Z" id="Shape"></path>
                <path d="M246.9,54 C248.7,42.6 237.8,33.7 230.2,26.9 C221.1,18.7 210.8,11.7 198.6,9.4 C197.2,9.1 196.6,11.3 198,11.6 C208.8,13.6 218,19.3 226.2,26.4 C233.6,32.8 246.5,42.5 244.8,53.5 C244.5,54.9 246.6,55.5 246.9,54 L246.9,54 L246.9,54 Z" id="Shape"></path>
                <path d="M255.2,51.4 C250.4,24.9 224.7,11.6 200.1,8.4 C198.7,8.2 198.7,10.5 200.1,10.7 C223.7,13.8 248.4,26.6 253,52.1 C253.3,53.4 255.5,52.8 255.2,51.4 L255.2,51.4 L255.2,51.4 Z" id="Shape"></path>
                <path d="M250.5,54.9 C243.4,29.4 221,11.6 194.6,10.2 C193.2,10.1 193.2,12.4 194.6,12.4 C220,13.7 241.5,30.9 248.4,55.4 C248.8,56.9 250.9,56.3 250.5,54.9 L250.5,54.9 L250.5,54.9 Z" id="Shape"></path>
                <path d="M238.9,51.8 C234.5,40.3 221.4,31.2 210.7,26.1 C198.5,20.3 184.9,17.9 171.5,19.5 C170.1,19.7 170.1,21.9 171.5,21.7 C184,20.3 196.7,22.2 208.2,27.4 C218.8,32.2 232.5,41.1 236.8,52.4 C237.2,53.7 239.4,53.2 238.9,51.8 L238.9,51.8 L238.9,51.8 Z" id="Shape"></path>
                <path d="M260,55.9 C258.3,43.7 252.4,30.8 243.9,21.8 C234.4,11.6 218.4,11.5 205.5,9.2 C204.1,9 203.5,11.1 204.9,11.4 C217.3,13.5 233.1,13.6 242.3,23.4 C250.5,32.2 256.1,44.7 257.8,56.5 C258.1,58 260.2,57.3 260,55.9 L260,55.9 L260,55.9 Z" id="Shape"></path>
                <path d="M268.9,58.3 C268.5,50.5 265.1,43.6 261,37 C256.8,30.2 252.3,23.3 246.2,18 C235.4,8.7 220.8,5.7 206.9,7.7 C205.5,7.9 206.1,10.1 207.5,9.9 C221.1,7.9 235.5,11.3 245.8,20.7 C250.8,25.3 254.6,31.1 258.2,36.8 C262.4,43.4 266.2,50.4 266.7,58.3 C266.7,59.7 268.9,59.7 268.9,58.3 L268.9,58.3 L268.9,58.3 Z" id="Shape"></path>
                <path d="M272.5,54.9 C270.4,41.9 260.6,29 251.6,19.7 C241.3,9.2 226.8,6 212.8,3.5 C211.4,3.2 210.8,5.4 212.2,5.7 C225.8,8.1 240.1,11.2 250,21.3 C258.7,30.2 268.3,43 270.4,55.5 C270.5,57 272.7,56.4 272.5,54.9 L272.5,54.9 L272.5,54.9 Z" id="Shape"></path>
                <path d="M278.1,54 C272.6,29.2 252.3,6.4 226.7,2.1 C225.3,1.9 224.7,4 226.1,4.3 C251,8.5 270.6,30.5 276,54.7 C276.3,56 278.4,55.4 278.1,54 L278.1,54 L278.1,54 Z" id="Shape"></path>
                <path d="M283.1,51.5 C279.5,28.3 258.5,7 236.3,0.5 C234.9,0.1 234.3,2.3 235.7,2.7 C257.2,8.9 277.4,29.7 280.9,52.1 C281.2,53.5 283.3,52.9 283.1,51.5 L283.1,51.5 L283.1,51.5 Z" id="Shape"></path>
                <path d="M285.9,49.8 C287.3,39 279.8,29.1 272.9,21.6 C265,13 255.1,6.4 243.9,3.2 C242.5,2.8 241.9,5 243.3,5.4 C253.7,8.4 262.8,14.3 270.3,22.1 C277.2,29.3 285.2,39.1 283.7,49.8 C283.5,51.2 285.7,51.2 285.9,49.8 L285.9,49.8 L285.9,49.8 Z" id="Shape"></path>
                <path d="M290,46.8 C287.1,36.4 281.3,27.3 274,19.3 C266.9,11.6 258.5,4.3 247.9,2.5 C246.5,2.2 245.9,4.4 247.3,4.7 C257.5,6.5 265.5,13.5 272.4,21 C279.5,28.6 285.1,37.4 287.9,47.5 C288.2,48.8 290.4,48.2 290,46.8 L290,46.8 L290,46.8 Z" id="Shape"></path>
                <path d="M293.8,46.3 C291.2,36.4 284.8,28.1 278.4,20.3 C272.4,12.9 265,6.7 255.1,6.5 C253.7,6.5 253.7,8.7 255.1,8.7 C265.4,8.8 272.4,16.1 278.3,23.7 C283.8,30.8 289.3,38.1 291.6,46.9 C292,48.3 294.1,47.7 293.8,46.3 L293.8,46.3 L293.8,46.3 Z" id="Shape"></path>
                <path d="M297.7,47.1 C297.5,41 293.9,36 290.8,30.9 C287.5,25.6 283.9,20.3 279.6,15.7 C275.8,11.6 271.3,8.1 266.3,5.7 C263.4,4.3 258.1,1.4 255.1,3.3 C254.8,3.5 254.5,3.9 254.5,4.3 L254.5,4.8 C254.6,6.2 256.9,6.2 256.7,4.8 C256.7,5.1 261.9,6.4 262.5,6.6 C264.8,7.5 267,8.6 269.1,10 C273.1,12.6 276.6,15.8 279.6,19.4 C283,23.4 285.9,27.7 288.7,32.1 C291.6,36.7 295.2,41.5 295.3,47.1 C295.5,48.6 297.7,48.6 297.7,47.1 L297.7,47.1 L297.7,47.1 Z" id="Shape"></path>
                <path d="M300.7,43.3 C299.3,34.2 293.6,25.9 288,18.8 C282.4,11.7 274,7.4 266.5,2.5 C265.3,1.7 264.2,3.7 265.4,4.4 C273.1,9.4 281.5,13.8 287.1,21.3 C292.1,28 297.3,35.5 298.6,43.9 C298.7,45.3 300.9,44.7 300.7,43.3 L300.7,43.3 L300.7,43.3 Z" id="Shape"></path>
                <path d="M304.9,42.1 C302.5,34.5 298.8,27.5 293.6,21.4 C287.9,14.7 280.6,10.2 273.2,5.5 C272,4.7 270.8,6.7 272.1,7.4 C278.8,11.7 285.6,15.8 291,21.8 C296.4,27.8 300.3,34.9 302.8,42.7 C303.2,44.1 305.4,43.5 304.9,42.1 L304.9,42.1 L304.9,42.1 Z" id="Shape"></path>
                <path d="M309.2,43.5 C311.2,36.6 304,27.4 299.8,22.5 C293.2,14.9 284.8,9.2 276.5,3.6 C275.3,2.8 274.2,4.7 275.4,5.5 C282.2,10.1 289,14.7 294.9,20.5 C297.7,23.3 300.3,26.3 302.4,29.6 C304.6,33 308.3,38.6 307.1,42.8 C306.7,44.3 308.8,44.9 309.2,43.5 L309.2,43.5 L309.2,43.5 Z" id="Shape"></path>
                <path d="M315.6,43.8 C312.4,32.5 305.7,19.1 295.1,13.1 C293.8,12.4 292.7,14.3 294,15 C304,20.6 310.4,33.8 313.5,44.4 C313.8,45.8 316,45.2 315.6,43.8 L315.6,43.8 L315.6,43.8 Z" id="Shape"></path>
                <path d="M317.9,41.6 C317.6,36.3 313.9,31.5 311.1,27.2 C307.7,22.1 304,17.4 299.9,12.9 C298.9,11.8 297.3,13.4 298.3,14.5 C301.9,18.4 305.2,22.5 308.2,26.9 C311,31 315.4,36.4 315.6,41.5 C315.7,43.1 317.9,43.1 317.9,41.6 L317.9,41.6 L317.9,41.6 Z" id="Shape"></path>
                <path d="M319.9,38.2 C317,29.3 312,21.6 304.9,15.4 C303.8,14.5 302.2,16 303.3,17 C310.1,22.9 314.9,30.2 317.7,38.8 C318.1,40.2 320.3,39.6 319.9,38.2 L319.9,38.2 L319.9,38.2 Z" id="Shape"></path>
                <path d="M321.8,36.7 C320.5,30.5 317.2,25.1 312.3,21.1 C311.2,20.2 309.6,21.8 310.7,22.7 C315.3,26.4 318.4,31.4 319.6,37.3 C319.9,38.8 322.1,38.2 321.8,36.7 L321.8,36.7 L321.8,36.7 Z" id="Shape"></path>
                <path d="M323.8,38.1 C323.1,32.7 320.8,27.9 316.9,24.1 C315.9,23.1 314.3,24.7 315.3,25.7 C318.7,29.1 320.9,33.3 321.5,38.1 C321.8,39.5 324,39.5 323.8,38.1 L323.8,38.1 L323.8,38.1 Z" id="Shape"></path>
                <path d="M327.5,40.1 C327,36 325.6,32.3 323.1,29 C322.2,27.8 320.3,29 321.2,30.1 C323.4,33.1 324.8,36.4 325.3,40.1 C325.4,41.5 327.7,41.5 327.5,40.1 L327.5,40.1 L327.5,40.1 Z" id="Shape"></path>
                <path d="M247.4,76.6 C226.5,75.6 205.1,70.4 184.4,75.6 C174.7,78 166,82.9 157.4,87.9 C148.3,93.3 139.2,98.8 130.4,104.7 C99,126 75.6,154.4 58,187.8 C53.2,196.9 48.3,206.2 41.1,213.6 C36.9,218 32.1,221.4 26.8,224.3 C21.7,227.1 14.5,231.7 8.6,231.2 C7.2,231.1 7.2,233.3 8.6,233.4 C12.5,233.8 15.8,232.1 19.3,230.5 C24.1,228.3 28.8,226 33.2,223.1 C40,218.6 45.5,212.6 50.1,205.9 C60.5,190.6 67.5,173.4 78.3,158.3 C89.6,142.5 103.1,128.3 118.4,116.3 C127.1,109.4 136.4,103.4 145.8,97.6 C154.5,92.2 163.3,86.6 172.6,82.3 C196.5,71.2 222.2,77.7 247.3,79 C248.8,78.9 248.8,76.7 247.4,76.6 L247.4,76.6 L247.4,76.6 Z" id="Shape"></path>
                <path d="M252.7,69.8 C239,63 223.6,63.3 208.7,65.6 C192.6,68 176.7,72.2 161.7,78.4 C147.3,84.3 133.8,92.1 121.8,102 C109.6,112 99,123.9 88.9,136 C77.1,150.1 65.6,164.5 52.4,177.2 C51.4,178.2 52.9,179.8 54,178.8 C75.7,157.9 92.4,132.6 114.1,111.8 C137,89.9 165.9,76.5 196.7,70 C214.6,66.2 234.5,63.2 251.6,71.7 C252.8,72.4 254,70.4 252.7,69.8 L252.7,69.8 L252.7,69.8 Z" id="Shape"></path>
                <path d="M252.3,73 C218,69.1 181.2,65.2 148.6,79.3 C117.6,92.7 96.3,120.1 76.1,145.9 C63.6,161.8 51,177.6 35.6,190.7 C34.5,191.6 36.1,193.2 37.2,192.3 C63.1,170.2 80.8,140.8 103.7,116 C114.8,104 127.1,93 141.6,85.2 C157.6,76.6 175.6,72.8 193.6,71.9 C213.2,70.9 232.9,73.1 252.4,75.3 C253.7,75.4 253.7,73.1 252.3,73 L252.3,73 L252.3,73 Z" id="Shape"></path>
                <path d="M266.4,63.4 C263.4,56.3 256.4,53.2 249.1,52.3 C240,51.2 230.4,51.9 221.3,52.7 C202.7,54.3 184.3,58.2 166.7,64.4 C149.1,70.6 132.3,79 116.8,89.4 C101.8,99.5 87.5,111.5 77.7,126.9 C71.6,136.5 67.6,147.3 60.6,156.4 C53.7,165.3 45.1,172.7 36.7,180 C35.6,180.9 37.2,182.5 38.3,181.6 C51.7,170 63.6,158.4 71.8,142.5 C76.3,133.9 80.7,125.6 87,118.1 C92.6,111.4 99.1,105.5 105.9,100.1 C134.4,77.6 168.9,62.9 204.7,57 C214.7,55.3 224.9,54.4 235.1,54.2 C245.4,54 259.7,53.2 264.5,64.5 C265.1,65.9 267,64.7 266.4,63.4 L266.4,63.4 L266.4,63.4 Z" id="Shape"></path>
                <path d="M263.9,66.9 C257.7,48.5 231.7,51.5 216.8,53.9 C195.3,57.3 174.1,65.2 153.9,73.4 C135.5,80.9 117.7,90.1 102.4,102.8 C85.5,116.9 72.1,134.9 58.7,152.2 C44.3,170.8 31,190.3 22,212.2 C21.5,213.5 23.6,214.1 24.2,212.8 C31.8,194.3 42.7,177.4 54.6,161.3 C66.5,145.3 78.9,129.1 92.8,114.7 C120.1,86.6 158.6,71.7 195.6,60.9 C206.8,57.6 218.3,55.1 230,54.5 C241.4,53.9 257.3,54.4 261.7,67.3 C262.2,68.8 264.3,68.3 263.9,66.9 L263.9,66.9 L263.9,66.9 Z" id="Shape"></path>
                <path d="M271.2,70.7 C323.2,99.8 328,166.6 347.9,216.5 C348.4,217.8 350.6,217.2 350.1,215.9 C330,165.4 325,98.2 272.3,68.7 C271.1,68 270,70 271.2,70.7 L271.2,70.7 L271.2,70.7 Z" id="Shape"></path>
                <path d="M283.2,319.8 L283.2,326 C283.2,327.4 285.4,327.5 285.4,326 L285.4,319.8 C285.5,318.3 283.2,318.3 283.2,319.8 L283.2,319.8 L283.2,319.8 Z" id="Shape"></path>
                <path d="M283.2,309.6 C283.9,319.6 283.7,329.5 282.8,339.4 C282.7,340.8 284.9,340.8 285,339.4 C286,329.5 286.1,319.5 285.4,309.6 C285.4,308.1 283.1,308.1 283.2,309.6 L283.2,309.6 L283.2,309.6 Z" id="Shape"></path>
                <path d="M282.4,347.5 C281.1,352.7 279.7,357.9 278.4,363.1 C278,364.5 280.2,365.1 280.6,363.7 C281.9,358.5 283.3,353.3 284.6,348.1 C284.9,346.7 282.7,346.1 282.4,347.5 L282.4,347.5 L282.4,347.5 Z" id="Shape"></path>
                <path d="M289,308.7 C289.5,321.6 289.5,334.5 289,347.4 C288.9,348.8 291.2,348.8 291.2,347.4 C291.7,334.5 291.7,321.6 291.2,308.7 C291.2,307.2 288.9,307.2 289,308.7 L289,308.7 L289,308.7 Z" id="Shape"></path>
                <path d="M299.9,317.8 C301.3,317.8 301.4,315.6 299.9,315.6 C298.5,315.6 298.5,317.8 299.9,317.8 L299.9,317.8 L299.9,317.8 Z" id="Shape"></path>
                <path d="M300,304.6 C306.8,313.3 321.7,322.5 333,317.3 C334.3,316.7 333.2,314.8 331.9,315.4 C321.5,320.2 307.7,310.9 301.6,303.1 C300.7,301.8 299.1,303.4 300,304.6 L300,304.6 L300,304.6 Z" id="Shape"></path>
                <path d="M301,299.4 C315.4,305.2 329.9,305.1 344.7,301.3 C358.2,297.8 377.8,292.7 386.6,307.7 C387.3,308.9 389.3,307.8 388.5,306.6 C381.9,295.3 367.9,294 356.2,296.2 C347.2,297.9 338.5,301.2 329.3,301.9 C319.7,302.6 310.3,300.9 301.4,297.3 C300.2,296.7 299.6,298.8 301,299.4 L301,299.4 L301,299.4 Z" id="Shape"></path>
                <path d="M308.6,304.8 C319.4,308.2 330.7,309.2 341.8,307.5 C354.5,305.6 367.9,300 380.2,306.5 C381.5,307.2 382.6,305.2 381.3,304.6 C371.4,299.4 360.6,301.4 350.1,303.6 C336.2,306.6 322.8,306.9 309.1,302.7 C307.9,302.2 307.3,304.4 308.6,304.8 L308.6,304.8 L308.6,304.8 Z" id="Shape"></path>
                <path d="M306.2,306.4 C312.7,309.3 318.9,313.4 325.8,315.5 C333,317.7 340,316.7 347,314.1 C354.6,311.2 361.6,306.7 369.6,305.2 C380.4,303.2 387.9,309.3 395.2,316.3 C396.2,317.3 397.8,315.7 396.8,314.7 C391.7,309.8 386.1,304.5 378.8,302.9 C371.9,301.4 365.1,303.7 358.9,306.4 C350.5,310 342,315.2 332.5,314.5 C323.4,313.9 315.5,308.1 307.4,304.5 C306,303.9 304.8,305.8 306.2,306.4 L306.2,306.4 L306.2,306.4 Z" id="Shape"></path>
                <path d="M392.1,278.3 C397.6,276.1 401.3,281.7 403.7,285.8 C404.4,287 406.4,285.9 405.6,284.7 C402.7,279.8 398,273.6 391.5,276.2 C390.2,276.7 390.8,278.9 392.1,278.3 L392.1,278.3 L392.1,278.3 Z" id="Shape"></path>
                <path d="M390.3,280.4 C394.5,279.8 396.9,284.5 398.7,287.5 C400.6,290.7 402.2,294 403.5,297.5 C404,298.8 406.2,298.3 405.7,296.9 C403.8,292.1 401.6,287.4 398.6,283.2 C396.6,280.4 394,277.6 390.3,278.1 C388.9,278.3 388.8,280.6 390.3,280.4 L390.3,280.4 L390.3,280.4 Z" id="Shape"></path>
                <path d="M390,277.5 C397,275.5 403.6,281.3 408.4,285.6 C409.5,286.6 411.1,285 410,284 C404.5,279.1 397.3,273 389.4,275.3 C388,275.7 388.6,277.9 390,277.5 L390,277.5 L390,277.5 Z" id="Shape"></path>
                <path d="M301.7,318 C312.7,329.3 325,340.9 341.8,341.1 C343.2,341.1 343.2,338.9 341.8,338.9 C325.7,338.8 313.8,327.4 303.3,316.5 C302.2,315.4 300.6,317 301.7,318 L301.7,318 L301.7,318 Z" id="Shape"></path>
                <path d="M299.6,324.7 C307.5,342.8 316.2,361.7 334.2,371.8 C335.5,372.5 336.6,370.6 335.3,369.9 C317.7,360.1 309.2,341.4 301.5,323.7 C300.9,322.2 299,323.4 299.6,324.7 L299.6,324.7 L299.6,324.7 Z" id="Shape"></path>
                <path d="M48.8,227.3 C48.5,227 48.2,226.7 47.9,226.4 C46.9,225.4 45.3,227 46.3,228 C46.6,228.3 46.9,228.6 47.2,228.9 C48.3,229.9 49.9,228.4 48.8,227.3 L48.8,227.3 L48.8,227.3 Z" id="Shape"></path>
                <path d="M56,228.4 C57.4,228.4 57.5,226.2 56,226.2 C54.6,226.1 54.6,228.4 56,228.4 L56,228.4 L56,228.4 Z" id="Shape"></path>
                <path d="M61.1,224.4 C60,222.3 58.8,220.2 57.7,218.1 C57,216.8 55.1,218 55.8,219.2 C56.9,221.3 58.1,223.4 59.2,225.5 C59.8,226.8 61.7,225.7 61.1,224.4 L61.1,224.4 L61.1,224.4 Z" id="Shape"></path>
                <path d="M59.1,222.4 C58.8,222.1 58.5,221.8 58.2,221.5 C57.2,220.5 55.6,222.1 56.6,223.1 C56.9,223.4 57.2,223.7 57.5,224 C58.5,225 60.1,223.5 59.1,222.4 L59.1,222.4 L59.1,222.4 Z" id="Shape"></path>
                <path d="M55.6,224.4 C57,224.4 57.1,222.2 55.6,222.2 C54.1,222.1 54.1,224.4 55.6,224.4 L55.6,224.4 L55.6,224.4 Z" id="Shape"></path>
                <path d="M54.2,222 C53.9,221.7 53.6,221.4 53.3,221.1 C52.3,220.1 50.7,221.7 51.7,222.7 C52,223 52.3,223.3 52.6,223.6 C53.6,224.6 55.2,223 54.2,222 L54.2,222 L54.2,222 Z" id="Shape"></path>
                <path d="M52,223.9 C53.4,223.9 53.5,221.7 52,221.7 C50.6,221.7 50.6,223.9 52,223.9 L52,223.9 L52,223.9 Z" id="Shape"></path>
                <path d="M55.2,222.6 C56.6,222.6 56.7,220.4 55.2,220.4 C53.7,220.3 53.7,222.6 55.2,222.6 L55.2,222.6 L55.2,222.6 Z" id="Shape"></path>
                <path d="M59.8,222.5 C59.7,222.1 59.5,221.6 59.4,221.2 C59.2,220.6 58.6,220.2 58,220.4 C57.4,220.6 57,221.2 57.2,221.8 C57.3,222.2 57.5,222.7 57.6,223.1 C57.8,223.7 58.4,224.1 59,223.9 C59.6,223.7 60,223.1 59.8,222.5 L59.8,222.5 L59.8,222.5 Z" id="Shape"></path>
                <path d="M60.2,221.4 C59,220.5 57.8,219.6 56.6,218.7 C56.1,218.3 55.3,218.6 55.1,219.1 C54.8,219.7 55,220.3 55.5,220.6 C56.7,221.5 57.9,222.4 59.1,223.3 C59.6,223.7 60.4,223.4 60.6,222.9 C60.9,222.3 60.7,221.7 60.2,221.4 L60.2,221.4 L60.2,221.4 Z" id="Shape"></path>
                <path d="M56.5,219.9 C57.9,219.9 58,217.7 56.5,217.7 C55,217.7 55,219.9 56.5,219.9 L56.5,219.9 L56.5,219.9 Z" id="Shape"></path>
                <path d="M62.4,225.3 C61.6,223.7 60.9,222.1 60.1,220.4 C59.5,219.1 57.5,220.2 58.2,221.5 C59,223.1 59.7,224.7 60.5,226.4 C61.1,227.7 63,226.6 62.4,225.3 L62.4,225.3 L62.4,225.3 Z" id="Shape"></path>
                <path d="M63.1,225.1 C61.8,223.5 60.4,221.8 59.1,220.2 C58.2,219.1 56.6,220.7 57.5,221.8 C58.8,223.4 60.2,225.1 61.5,226.7 C62.4,227.8 64,226.2 63.1,225.1 L63.1,225.1 L63.1,225.1 Z" id="Shape"></path>
                <path d="M58.9,221.2 C58.3,219.8 57.5,218.6 56.4,217.6 C55.3,216.6 53.7,218.2 54.8,219.2 C55.6,219.9 56.3,220.8 56.7,221.8 C56.9,222.4 57.4,222.8 58.1,222.6 C58.6,222.4 59.1,221.7 58.9,221.2 L58.9,221.2 L58.9,221.2 Z" id="Shape"></path>
                <path d="M57.5,219.5 C56.7,218.3 56,217.1 55.2,216 C54.4,214.8 52.5,215.9 53.3,217.1 C54.1,218.3 54.8,219.5 55.6,220.6 C56.3,221.9 58.2,220.8 57.5,219.5 L57.5,219.5 L57.5,219.5 Z" id="Shape"></path>
                <path d="M55.6,224.8 C57,224.8 57.1,222.6 55.6,222.6 C54.1,222.5 54.1,224.8 55.6,224.8 L55.6,224.8 L55.6,224.8 Z" id="Shape"></path>
                <path d="M55.3,222.6 C54.4,222 53.5,221.4 52.6,220.8 C52.1,220.5 51.4,220.7 51.1,221.2 C50.8,221.7 51,222.4 51.5,222.7 C52.4,223.3 53.3,223.9 54.2,224.5 C54.7,224.8 55.4,224.6 55.7,224.1 C56,223.6 55.8,223 55.3,222.6 L55.3,222.6 L55.3,222.6 Z" id="Shape"></path>
                <path d="M52.3,222.1 C51.9,222 51.4,221.8 51,221.7 C50.4,221.5 49.8,221.9 49.6,222.5 C49.4,223.1 49.8,223.7 50.4,223.9 C50.8,224 51.3,224.2 51.7,224.3 C52.3,224.5 52.9,224.1 53.1,223.5 C53.3,222.9 52.9,222.3 52.3,222.1 L52.3,222.1 L52.3,222.1 Z" id="Shape"></path>
                <path d="M52.5,224.8 C53.9,224.8 54,222.6 52.5,222.6 C51,222.5 51,224.8 52.5,224.8 L52.5,224.8 L52.5,224.8 Z" id="Shape"></path>
                <path d="M56.6,223.1 C56.5,222.8 56.3,222.5 56.2,222.2 C55.9,221.7 55.2,221.5 54.7,221.8 C54.1,222.1 54,222.8 54.3,223.3 C54.4,223.6 54.6,223.9 54.7,224.2 C55,224.7 55.7,224.9 56.2,224.6 C56.7,224.3 56.8,223.7 56.6,223.1 L56.6,223.1 L56.6,223.1 Z" id="Shape"></path>
                <path d="M60,225.5 C59.7,225.2 59.4,224.9 59.1,224.6 C58.1,223.6 56.5,225.2 57.5,226.2 C57.8,226.5 58.1,226.8 58.4,227.1 C59.4,228.2 61,226.6 60,225.5 L60,225.5 L60,225.5 Z" id="Shape"></path>
                <path d="M53.8,226.6 C55.2,226.6 55.3,224.4 53.8,224.4 C52.4,224.3 52.4,226.6 53.8,226.6 L53.8,226.6 L53.8,226.6 Z" id="Shape"></path>
                <path d="M51.6,227 C53,227 53.1,224.8 51.6,224.8 C50.1,224.8 50.1,227 51.6,227 L51.6,227 L51.6,227 Z" id="Shape"></path>
                <path d="M48.5,229.7 C49.9,229.7 50,227.5 48.5,227.5 C47,227.4 47,229.7 48.5,229.7 L48.5,229.7 L48.5,229.7 Z" id="Shape"></path>
                <path d="M44.9,230.1 C46.3,230.1 46.4,227.9 44.9,227.9 C43.5,227.9 43.5,230.1 44.9,230.1 L44.9,230.1 L44.9,230.1 Z" id="Shape"></path>
                <path d="M42,251.3 L42,251.7 C42,253.1 44.2,253.2 44.2,251.7 L44.2,251.3 C44.3,249.8 42,249.8 42,251.3 L42,251.3 L42,251.3 Z" id="Shape"></path>
                <path d="M43.1,251.5 C44.5,251.5 44.6,249.3 43.1,249.3 C41.7,249.2 41.7,251.5 43.1,251.5 L43.1,251.5 L43.1,251.5 Z" id="Shape"></path>
                <path d="M114.1,249.7 C117.9,245 123.5,242.7 129.5,243.5 C130.9,243.7 130.9,241.4 129.5,241.3 C123,240.4 116.6,243 112.5,248.1 C111.6,249.2 113.2,250.8 114.1,249.7 L114.1,249.7 L114.1,249.7 Z" id="Shape"></path>
                <path d="M116.4,252.5 C121.5,248.2 126.9,243.8 133.9,243.8 C135.3,243.8 135.4,241.6 133.9,241.6 C126.3,241.6 120.3,246.3 114.8,250.9 C113.7,251.8 115.3,253.4 116.4,252.5 L116.4,252.5 L116.4,252.5 Z" id="Shape"></path>
                <path d="M118.4,253.6 C121.1,251 124.4,249.4 128.1,249 C129.5,248.8 129.5,246.6 128.1,246.8 C123.8,247.3 119.9,249 116.8,252.1 C115.8,253 117.4,254.6 118.4,253.6 L118.4,253.6 L118.4,253.6 Z" id="Shape"></path>
                <path d="M122.7,256.1 C127.3,250.7 134.9,249.2 141.3,247 C142.7,246.5 142.1,244.4 140.7,244.8 C133.9,247.1 125.9,248.7 121.1,254.5 C120.1,255.6 121.7,257.2 122.7,256.1 L122.7,256.1 L122.7,256.1 Z" id="Shape"></path>
                <path d="M128.9,255.7 C131.5,251.8 135.8,249.7 140.5,249.8 C141.9,249.8 141.9,247.6 140.5,247.6 C135,247.4 130,250.1 126.9,254.6 C126.2,255.8 128.1,256.9 128.9,255.7 L128.9,255.7 L128.9,255.7 Z" id="Shape"></path>
                <path d="M133.8,254.7 C136.8,251.8 140.4,250 144.5,249.3 C145.9,249 145.3,246.9 143.9,247.1 C139.5,247.9 135.5,250 132.2,253.1 C131.2,254.1 132.8,255.7 133.8,254.7 L133.8,254.7 L133.8,254.7 Z" id="Shape"></path>
                <path d="M134.2,255.6 C137.6,252.9 141.6,251.4 145.9,251.1 C147.3,251 147.3,248.7 145.9,248.9 C141,249.2 136.5,251 132.6,254 C131.5,254.9 133.1,256.5 134.2,255.6 L134.2,255.6 L134.2,255.6 Z" id="Shape"></path>
                <path d="M138.7,255 C143.9,253 149.3,252 154.9,251.9 C156.3,251.9 156.4,249.6 154.9,249.7 C149.1,249.8 143.6,250.8 138.1,252.8 C136.7,253.3 137.3,255.5 138.7,255 L138.7,255 L138.7,255 Z" id="Shape"></path>
                <path d="M128.9,248.4 C133.1,245.5 137.8,244.2 142.8,244.6 C144.2,244.7 144.2,242.5 142.8,242.4 C137.4,241.9 132.2,243.3 127.7,246.5 C126.6,247.2 127.7,249.2 128.9,248.4 L128.9,248.4 L128.9,248.4 Z" id="Shape"></path>
                <path d="M135,249.6 C138.3,247.2 141.9,246.1 146,246.4 C147.4,246.5 147.4,244.2 146,244.2 C141.6,243.9 137.4,245.1 133.9,247.7 C132.7,248.5 133.8,250.5 135,249.6 L135,249.6 L135,249.6 Z" id="Shape"></path>
                <path d="M144.7,247.8 C147.1,246.7 149.5,246.2 152.1,246.1 C153.5,246.1 153.6,243.8 152.1,243.9 C149.1,243.9 146.2,244.6 143.5,245.9 C142.3,246.5 143.4,248.4 144.7,247.8 L144.7,247.8 L144.7,247.8 Z" id="Shape"></path>
                <path d="M148.1,250.3 C150.4,248.3 153.4,247.6 156.4,248.2 C157.8,248.5 158.4,246.3 157,246 C153.2,245.2 149.5,246.1 146.6,248.6 C145.4,249.7 147,251.2 148.1,250.3 L148.1,250.3 L148.1,250.3 Z" id="Shape"></path>
                <path d="M152.6,251.5 C157,251.2 161.3,251.3 165.7,251.9 C167.1,252.1 167.7,249.9 166.3,249.7 C161.8,249.1 157.2,248.9 152.7,249.2 C151.2,249.3 151.2,251.6 152.6,251.5 L152.6,251.5 L152.6,251.5 Z" id="Shape"></path>
                <path d="M142.5,255.3 C146.7,253.1 151.2,252.2 155.9,252.9 C157.3,253.1 157.9,250.9 156.5,250.7 C151.2,249.9 146.1,250.8 141.4,253.3 C140,254 141.2,256 142.5,255.3 L142.5,255.3 L142.5,255.3 Z" id="Shape"></path>
                <path d="M150.9,256.6 C154.2,255 157.7,254.8 161.2,255.9 C162.6,256.3 163.2,254.2 161.8,253.7 C157.8,252.4 153.6,252.7 149.8,254.6 C148.5,255.3 149.6,257.2 150.9,256.6 L150.9,256.6 L150.9,256.6 Z" id="Shape"></path>
                <path d="M159.2,257.8 C163.1,256.2 167.1,256.4 170.8,258.4 C172.1,259.1 173.2,257.2 171.9,256.5 C167.8,254.2 163,253.8 158.6,255.7 C157.3,256.2 157.9,258.4 159.2,257.8 L159.2,257.8 L159.2,257.8 Z" id="Shape"></path>
                <path d="M163.1,258.6 C167.4,257.8 171.7,258.2 175.8,259.6 C177.2,260.1 177.8,257.9 176.4,257.4 C171.9,255.8 167.2,255.5 162.5,256.4 C161.1,256.7 161.7,258.8 163.1,258.6 L163.1,258.6 L163.1,258.6 Z" id="Shape"></path>
                <path d="M169.3,261.3 C174,259.1 179.1,259.2 183.8,261.5 C185.1,262.1 186.2,260.2 184.9,259.6 C179.5,256.9 173.6,256.9 168.2,259.4 C166.8,259.9 168,261.9 169.3,261.3 L169.3,261.3 L169.3,261.3 Z" id="Shape"></path>
                <path d="M157.5,253.7 C162.4,253.2 167.2,253.6 171.9,255.1 C173.3,255.5 173.9,253.4 172.5,252.9 C167.6,251.4 162.6,250.9 157.5,251.4 C156.1,251.6 156.1,253.8 157.5,253.7 L157.5,253.7 L157.5,253.7 Z" id="Shape"></path>
                <path d="M147.1,250.8 C153.6,249 160.1,249.5 166.3,252.3 C167.6,252.9 168.8,251 167.4,250.4 C160.7,247.4 153.6,246.8 146.5,248.7 C145.1,249.1 145.7,251.2 147.1,250.8 L147.1,250.8 L147.1,250.8 Z" id="Shape"></path>
                <path d="M165.5,256.8 C170.7,256.3 175.8,256.8 180.8,258.5 C182.2,259 182.8,256.8 181.4,256.3 C176.2,254.6 170.9,254 165.5,254.5 C164.1,254.7 164.1,257 165.5,256.8 L165.5,256.8 L165.5,256.8 Z" id="Shape"></path>
                <path d="M166.8,255 C172.6,255.6 178.3,256.8 183.9,258.5 C185.3,258.9 185.9,256.8 184.5,256.3 C178.7,254.5 172.9,253.3 166.9,252.7 C165.4,252.6 165.4,254.9 166.8,255 L166.8,255 L166.8,255 Z" id="Shape"></path>
                <path d="M181.2,259.9 C185.6,261.1 189.8,262.6 193.8,264.7 C195.1,265.3 196.2,263.4 194.9,262.8 C190.7,260.7 186.3,259 181.7,257.8 C180.4,257.4 179.8,259.5 181.2,259.9 L181.2,259.9 L181.2,259.9 Z" id="Shape"></path>
                <path d="M193.9,263.8 C197.3,265.3 200.7,266.8 204.1,268.2 C205.4,268.8 206.6,266.8 205.2,266.3 C201.8,264.8 198.4,263.3 195,261.9 C193.7,261.3 192.6,263.2 193.9,263.8 L193.9,263.8 L193.9,263.8 Z" id="Shape"></path>
                <path d="M194.2,264.7 C202.9,267.5 210.4,272.3 216.6,279 C217.6,280.1 219.2,278.5 218.2,277.4 C211.8,270.4 203.9,265.4 194.8,262.5 C193.4,262.1 192.8,264.3 194.2,264.7 L194.2,264.7 L194.2,264.7 Z" id="Shape"></path>
                <path d="M178.9,264.4 C183.8,264 188.6,264.5 193.3,266.1 C194.7,266.6 195.3,264.4 193.9,263.9 C189,262.3 184,261.7 178.9,262.1 C177.4,262.3 177.4,264.6 178.9,264.4 L178.9,264.4 L178.9,264.4 Z" id="Shape"></path>
                <path d="M169.2,262 C171.5,260.9 173.9,260.7 176.3,261.2 C177.7,261.5 178.3,259.3 176.9,259 C173.8,258.3 170.9,258.7 168,260 C166.7,260.7 167.9,262.6 169.2,262 L169.2,262 L169.2,262 Z" id="Shape"></path>
                <path d="M176.2,259.1 C177.6,259.1 177.7,256.9 176.2,256.9 C174.7,256.8 174.7,259.1 176.2,259.1 L176.2,259.1 L176.2,259.1 Z" id="Shape"></path>
                <path d="M147.1,256.5 C149.2,254.5 151.8,253.3 154.7,252.9 C156.1,252.7 155.5,250.5 154.1,250.7 C150.8,251.1 147.9,252.6 145.6,254.9 C144.5,255.9 146.1,257.5 147.1,256.5 L147.1,256.5 L147.1,256.5 Z" id="Shape"></path>
                <path d="M155.4,258.4 C156.9,257.7 158.4,256.9 159.9,256.2 C161.2,255.6 160.1,253.6 158.8,254.3 C157.3,255 155.8,255.8 154.3,256.5 C152.9,257.1 154.1,259.1 155.4,258.4 L155.4,258.4 L155.4,258.4 Z" id="Shape"></path>
                <path d="M173.8,262.9 C177.6,261.9 181.4,262.2 185,263.9 C186.3,264.5 187.4,262.6 186.1,262 C182,260 177.6,259.6 173.2,260.8 C171.8,261.1 172.4,263.2 173.8,262.9 L173.8,262.9 L173.8,262.9 Z" id="Shape"></path>
                <path d="M185.5,266.4 C190.3,266.6 194.8,267.9 199.1,270.2 C200.4,270.9 201.5,268.9 200.2,268.3 C195.6,265.8 190.7,264.5 185.5,264.2 C184.1,264.1 184.1,266.3 185.5,266.4 L185.5,266.4 L185.5,266.4 Z" id="Shape"></path>
                <path d="M112.2,254.5 C114.4,252.9 116.7,251.3 118.9,249.7 C120.1,248.9 118.9,246.9 117.8,247.8 C115.6,249.4 113.3,251 111.1,252.6 C109.9,253.4 111.1,255.3 112.2,254.5 L112.2,254.5 L112.2,254.5 Z" id="Shape"></path>
                <path d="M117.7,254.6 C120,252.1 122.7,250.1 125.8,248.8 C127.1,248.3 126.5,246.1 125.2,246.6 C121.7,248.1 118.7,250.2 116.1,253 C115.1,254.1 116.7,255.7 117.7,254.6 L117.7,254.6 L117.7,254.6 Z" id="Shape"></path>
                <path d="M119.1,256.1 C120.7,254.3 122.6,252.9 124.8,251.9 C126.1,251.4 125.5,249.2 124.2,249.7 C121.6,250.8 119.3,252.3 117.5,254.4 C116.6,255.6 118.2,257.2 119.1,256.1 L119.1,256.1 L119.1,256.1 Z" id="Shape"></path>
                <path d="M125.7,256.5 C126.4,254.4 127.7,252.6 129.6,251.4 C130.8,250.6 129.7,248.7 128.5,249.5 C126.1,251 124.4,253.2 123.5,255.9 C123.1,257.3 125.3,257.8 125.7,256.5 L125.7,256.5 L125.7,256.5 Z" id="Shape"></path>
                <path d="M132.2,256.4 C133,254.2 134.3,252.3 136.1,250.7 C137.2,249.7 135.6,248.2 134.5,249.1 C132.4,250.9 131,253.2 130,255.8 C129.5,257.2 131.7,257.8 132.2,256.4 L132.2,256.4 L132.2,256.4 Z" id="Shape"></path>
                <path d="M166.6,252 C169.9,252.9 173,254.2 176,255.9 C177.3,256.6 178.4,254.7 177.1,254 C174,252.2 170.7,250.8 167.2,249.9 C165.8,249.4 165.2,251.6 166.6,252 L166.6,252 L166.6,252 Z" id="Shape"></path>
                <path d="M273.7,397.5 C268.6,411.5 260.8,425.1 250,435.5 C239.2,445.9 224.1,446.6 211.8,454.4 C210.6,455.2 211.7,457.1 212.9,456.3 C219.9,451.9 227.8,450 235.4,447.1 C242,444.6 247.7,441 252.7,435.9 C263.1,425.3 270.7,412 275.8,398.1 C276.4,396.7 274.2,396.1 273.7,397.5 L273.7,397.5 L273.7,397.5 Z" id="Shape"></path>
                <path d="M34.7,271.1 C30.4,284.6 26.1,298.4 26.5,312.7 C26.9,325.7 30.7,338.3 37.2,349.5 C37.9,350.7 39.9,349.6 39.1,348.4 C32.5,337 28.7,324.2 28.7,311 C28.6,297.4 32.7,284.5 36.8,271.7 C37.3,270.3 35.1,269.7 34.7,271.1 L34.7,271.1 L34.7,271.1 Z" id="Shape"></path>
                <path d="M57.8,231.5 C59.2,231.5 59.3,229.3 57.8,229.3 C56.4,229.2 56.4,231.5 57.8,231.5 L57.8,231.5 L57.8,231.5 Z" id="Shape"></path>
                <path d="M53.8,227.9 C53.7,227.9 53.5,227.8 53.4,227.6 C53.1,227.1 52.4,226.9 51.9,227.2 C51.4,227.5 51.2,228.2 51.5,228.7 C52.1,229.5 52.8,230 53.9,230.1 C54.5,230.2 55,229.5 55,229 C54.9,228.3 54.4,227.9 53.8,227.9 L53.8,227.9 L53.8,227.9 Z" id="Shape"></path>
                <path d="M51.7,227.6 C51.3,227.3 50.8,227 50.4,226.7 C49.2,225.9 48.1,227.8 49.3,228.6 C49.7,228.9 50.2,229.2 50.6,229.5 C51.8,230.4 52.9,228.4 51.7,227.6 L51.7,227.6 L51.7,227.6 Z" id="Shape"></path>
                <path d="M51.3,228 C50.4,227.6 49.5,227.1 48.6,226.7 C48.1,226.4 47.4,226.6 47.1,227.1 C46.8,227.6 47,228.4 47.5,228.6 C48.4,229 49.3,229.5 50.2,229.9 C50.7,230.2 51.4,230 51.7,229.5 C52,229 51.9,228.2 51.3,228 L51.3,228 L51.3,228 Z" id="Shape"></path>
                <path d="M53.4,228.4 C54.8,228.4 54.9,226.2 53.4,226.2 C51.9,226.1 51.9,228.4 53.4,228.4 L53.4,228.4 L53.4,228.4 Z" id="Shape"></path>
                <path d="M60.2,227.2 C59.2,226.5 58.1,225.7 57.1,225 C56.6,224.6 55.8,224.9 55.6,225.4 C55.3,226 55.5,226.6 56,226.9 C57,227.6 58.1,228.4 59.1,229.1 C59.6,229.5 60.4,229.2 60.6,228.7 C60.9,228.1 60.7,227.5 60.2,227.2 L60.2,227.2 L60.2,227.2 Z" id="Shape"></path>
                <path d="M51.6,226.1 L51.2,226.1 C49.8,226.1 49.7,228.3 51.2,228.3 L51.6,228.3 C53,228.4 53,226.1 51.6,226.1 L51.6,226.1 L51.6,226.1 Z" id="Shape"></path>
                <path d="M46.7,230.1 L44.9,230.1 C43.5,230.1 43.4,232.3 44.9,232.3 L46.7,232.3 C48.1,232.4 48.1,230.1 46.7,230.1 L46.7,230.1 L46.7,230.1 Z" id="Shape"></path>
                <path d="M45.4,234.6 C46.8,234.6 46.9,232.4 45.4,232.4 C43.9,232.3 43.9,234.6 45.4,234.6 L45.4,234.6 L45.4,234.6 Z" id="Shape"></path>
                <path d="M44.4,229.1 C44.3,229 44.1,228.8 44,228.7 C43,227.7 41.4,229.3 42.4,230.3 C42.5,230.4 42.7,230.6 42.8,230.7 C43.8,231.7 45.4,230.1 44.4,229.1 L44.4,229.1 L44.4,229.1 Z" id="Shape"></path>
                <path d="M44.9,232.4 C46.3,232.4 46.4,230.2 44.9,230.2 C43.5,230.1 43.5,232.4 44.9,232.4 L44.9,232.4 L44.9,232.4 Z" id="Shape"></path>
                <path d="M42.6,251.6 C42.2,252.2 41.7,252.8 41.3,253.4 C40.9,253.9 41.2,254.7 41.7,254.9 C42.3,255.2 42.9,255 43.2,254.5 C43.6,253.9 44.1,253.3 44.5,252.7 C44.9,252.2 44.6,251.4 44.1,251.2 C43.5,250.8 42.9,251.1 42.6,251.6 L42.6,251.6 L42.6,251.6 Z" id="Shape"></path>
                <path d="M357.5,355.5 C348.6,366.2 337.7,374.7 325.2,380.7 C323.9,381.3 325,383.3 326.3,382.6 C339,376.5 350.1,367.9 359.1,357 C360,356 358.4,354.4 357.5,355.5 L357.5,355.5 L357.5,355.5 Z" id="Shape"></path>
                <path d="M314.3,395.8 C301.5,410.9 301.6,438.7 316.1,452.4 C334.1,469.5 356.9,479.6 378.4,491.3 C379.7,492 380.8,490 379.5,489.4 C360.4,479 340.5,469.9 323.7,456 C319.9,452.9 316,449.7 313.1,445.7 C309.4,440.6 308.1,434.5 307.7,428.4 C307.1,417.6 308.6,405.9 315.9,397.4 C316.8,396.3 315.2,394.7 314.3,395.8 L314.3,395.8 L314.3,395.8 Z" id="Shape"></path>
                <g transform="translate(299.000000, 372.000000)" id="Shape">
                    <path d="M17.8,2.5 C14.1,0.6 8.5,2.6 5.5,5.5 C2.5,8.4 1.3,12.9 2.1,17 C2.4,18.6 3,20.2 4.2,21.3 C5.1,22.1 6.2,22.4 7.3,22.8 C11.6,24.2 16.8,24.8 20.3,21.9 C21.8,20.7 22.7,18.9 23.5,17.1 C24.7,14.5 25.6,11.7 25.1,8.9 C24.6,6.1 22.5,3.4 19.7,3.1 L17.8,2.5 L17.8,2.5 Z"></path>
                    <path d="M18.2,1.1 C11.9,-1.4 4.4,2.6 1.7,8.5 C0.2,11.9 -0.2,16.3 1.3,19.8 C2.7,23 5.7,24.1 8.8,24.8 C17.3,26.8 23.1,23.4 25.8,15.1 C26.9,11.6 27.1,7.7 24.8,4.6 C23.2,2.4 20.8,1.9 18.2,1.1 C16.4,0.5 15.6,3.4 17.4,4 C18.1,4.2 18.7,4.4 19.4,4.7 C23.4,6.2 24.4,9.6 23.3,13.6 C22.6,16.4 21,19.9 18.5,21.4 C16,23 12.5,22.6 9.8,21.9 C-3.2,18.9 6.3,-0.4 17.5,4 C19.2,4.7 20,1.8 18.2,1.1 L18.2,1.1 Z"></path>
                </g>
                <path d="M187.9,269.1 C192.1,269.9 195.9,272.1 200.1,273 C204.4,273.9 208.7,273.9 213,273.4 C214.4,273.2 214.4,271 213,271.2 C208.2,271.8 203.6,271.7 198.9,270.5 C195.3,269.6 192.1,267.8 188.5,267.1 C187.1,266.7 186.5,268.8 187.9,269.1 L187.9,269.1 L187.9,269.1 Z" id="Shape"></path>
                <path d="M192.5,274.4 C196.5,274.5 200.5,274.5 204.5,275 C208.5,275.5 212.3,276.4 216.4,276.3 C217.8,276.3 217.9,274 216.4,274.1 C212.4,274.2 208.5,273.2 204.5,272.8 C200.5,272.3 196.5,272.3 192.5,272.2 C191.1,272.1 191.1,274.4 192.5,274.4 L192.5,274.4 L192.5,274.4 Z" id="Shape"></path>
                <path d="M202.2,276.6 C209.3,275.6 216,278.5 223,277.6 C224.4,277.4 223.8,275.2 222.4,275.4 C218.4,275.9 214.6,274.6 210.6,274.2 C207.6,273.9 204.6,274 201.6,274.5 C200.2,274.7 200.8,276.8 202.2,276.6 L202.2,276.6 L202.2,276.6 Z" id="Shape"></path>
                <path d="M203.7,279.5 C207.6,279.2 211.1,280.6 214.9,281.2 C217.7,281.6 220.4,281.5 223.2,281.1 C224.6,280.9 224,278.7 222.6,278.9 C216,279.8 210.2,276.8 203.7,277.2 C202.3,277.4 202.3,279.6 203.7,279.5 L203.7,279.5 L203.7,279.5 Z" id="Shape"></path>
                <path d="M189.2,268.6 C192.9,268.5 197.7,267.6 201.3,268.5 C204.3,269.3 205.9,271.6 209.2,271.7 C210.6,271.8 210.6,269.5 209.2,269.5 C205.9,269.4 203.8,266.5 200.6,266.1 C196.9,265.6 192.9,266.2 189.3,266.3 C187.8,266.4 187.8,268.6 189.2,268.6 L189.2,268.6 L189.2,268.6 Z" id="Shape"></path>
                <path d="M61,227.2 C73.6,239.1 83.6,256.3 79.4,274.2 C77.5,282.2 73.4,289.4 69.9,296.7 C66.5,303.8 63.6,310.5 59.3,317.1 C52.5,327.7 47.1,337.9 51.7,350.6 C54.9,359.3 61.9,367.7 72,365.2 C73.4,364.8 72.8,362.7 71.4,363 C58.8,366.2 51.4,349.2 52,339 C52.4,331.3 57.2,324.6 61.3,318.3 C65.3,312.1 68.1,305.9 71.2,299.3 C77,286.8 84.3,274.7 82.3,260.3 C80.4,246.7 72.4,234.8 62.6,225.6 C61.6,224.6 60,226.2 61,227.2 L61,227.2 L61,227.2 Z" id="Shape"></path>
                <path d="M72.1,365.2 C75.2,364.6 78,362.8 80.7,361.4 C82.3,360.6 83.9,359.8 85.8,359.4 C89,358.7 97.2,359.6 97.4,364.7 C97.5,366.1 99.7,366.2 99.6,364.7 C99.4,359.7 93.2,356.9 88.8,356.8 C82.2,356.7 77.7,361.9 71.5,363 C70.1,363.3 70.7,365.5 72.1,365.2 L72.1,365.2 L72.1,365.2 Z" id="Shape"></path>
            </g>
        </g>
    </g>
</svg>
